<svg width="316" height="59" viewBox="0 0 316 59" fill="none" xmlns="http://www.w3.org/2000/svg">
<g clip-path="url(#clip0)">
<path d="M151.793 28.4363C151.607 28.4363 151.421 28.3654 151.279 28.2234C150.995 27.9396 150.995 27.4795 151.279 27.1957L153.848 24.6263C154.132 24.3426 154.592 24.3426 154.876 24.6263C155.16 24.9101 155.16 25.3702 154.876 25.654L152.307 28.2234C152.165 28.3654 151.979 28.4363 151.793 28.4363Z" fill="#556080"/>
<path d="M155.904 32.5474C155.718 32.5474 155.532 32.4764 155.39 32.3346C155.106 32.0508 155.106 31.5906 155.39 31.3068L157.959 28.7374C158.243 28.4538 158.703 28.4539 158.987 28.7374C159.271 29.0213 159.271 29.4815 158.987 29.7652L156.418 32.3347C156.276 32.4764 156.09 32.5474 155.904 32.5474Z" fill="#556080"/>
<path d="M174.404 15.3765L168.237 9.20981C167.957 8.92998 167.489 8.92998 167.209 9.20981L152.821 23.5986C152.541 23.8785 152.541 24.3465 152.821 24.6264L158.987 30.7929C159.267 31.0729 159.735 31.0729 160.015 30.7929L174.404 16.4042C174.688 16.1204 174.688 15.6603 174.404 15.3765Z" fill="#56ACE1"/>
<path d="M171.834 12.8071L170.807 11.7793L167.209 15.3765L164.126 12.2932L163.098 13.321L166.182 16.4042L163.612 18.9736L160.529 15.8904L159.501 16.9182L162.584 20.0013L160.015 22.5708L156.932 19.4876L155.904 20.5153L158.987 23.5986L155.39 27.1957L156.418 28.2234L160.015 24.6263L163.098 27.7096L164.126 26.6819L161.043 23.5986L163.612 21.0291L166.695 24.1124L167.723 23.0846L164.64 20.0013L167.209 17.4319L170.293 20.5153L171.32 19.4876L168.237 16.4042L171.834 12.8071Z" fill="#298ECC"/>
<path d="M146.14 34.0891C145.954 34.0891 145.768 34.0181 145.626 33.8763C145.342 33.5924 145.342 33.1323 145.626 32.8485L148.196 30.2791C148.479 29.9954 148.94 29.9954 149.223 30.2791C149.507 30.563 149.507 31.023 149.223 31.3069L146.654 33.8763C146.512 34.0182 146.326 34.0891 146.14 34.0891Z" fill="#556080"/>
<path d="M150.251 38.2002C150.065 38.2002 149.879 38.1292 149.737 37.9874C149.453 37.7035 149.453 37.2434 149.737 36.9596L152.307 34.3902C152.59 34.1065 153.051 34.1065 153.334 34.3902C153.618 34.674 153.618 35.1341 153.334 35.418L150.765 37.9874C150.623 38.1292 150.437 38.2002 150.251 38.2002Z" fill="#556080"/>
<path d="M151.793 37.9872L145.626 31.8207C145.342 31.537 144.882 31.537 144.599 31.8207L130.21 46.2094C129.93 46.4893 129.93 46.9574 130.21 47.2372L136.376 53.4038C136.657 53.6838 137.124 53.6838 137.404 53.4038L151.793 39.0151C152.073 38.7352 152.073 38.2672 151.793 37.9872Z" fill="#56ACE1"/>
<path d="M149.223 35.4179L148.196 34.3901L144.599 37.9872L141.515 34.904L140.488 35.9317L143.571 39.015L141.001 41.5844L137.918 38.5011L136.89 39.5289L139.974 42.6122L137.404 45.1816L134.321 42.0983L133.293 43.1261L136.376 46.2094L132.779 49.8066L133.807 50.8343L137.404 47.2371L140.488 50.3204L141.515 49.2926L138.432 46.2094L141.001 43.64L144.085 46.7232L145.113 45.6955L142.029 42.6122L144.599 40.0428L147.682 43.126L148.71 42.0983L145.626 39.015L149.223 35.4179Z" fill="#298ECC"/>
<path d="M158.474 40.5569L161.557 37.4737L146.141 22.0576L143.058 25.1408L158.474 40.5569Z" fill="#778099"/>
<path d="M151.793 21.5431L143.571 13.321C143.291 13.0411 142.823 13.0411 142.543 13.321L134.321 21.5431C134.037 21.8269 134.037 22.287 134.321 22.5708L142.543 30.793C142.823 31.0728 143.291 31.0728 143.571 30.793L151.793 22.5708C152.077 22.287 152.077 21.8269 151.793 21.5431Z" fill="#EEEFF2"/>
<path d="M134.321 21.5431C134.037 21.8269 134.037 22.287 134.321 22.5708L142.543 30.7929C142.823 31.0728 143.291 31.0728 143.571 30.7929L145.85 28.5139L136.6 19.264L134.321 21.5431Z" fill="#DDDFE6"/>
<path d="M136.377 24.6258L137.404 25.6536L146.654 16.4039L145.626 15.3761L136.377 24.6258Z" fill="#99A0B3"/>
<path d="M139.46 27.7088L140.488 28.7365L149.737 19.4868L148.709 18.4591L139.46 27.7088Z" fill="#99A0B3"/>
<path d="M137.405 25.6536L140.213 22.8456L139.185 21.8179L136.377 24.6259L137.405 25.6536Z" fill="#8890A6"/>
<path d="M143.295 25.9295L142.267 24.9017L139.459 27.7098L140.487 28.7375L143.295 25.9295Z" fill="#8890A6"/>
<path d="M157.959 41.7973C157.774 41.7973 157.587 41.7264 157.446 41.5845C157.162 41.3007 157.162 40.8406 157.446 40.5568L161.557 36.4457C161.84 36.162 162.301 36.162 162.584 36.4457C162.868 36.7295 162.868 37.1896 162.584 37.4734L158.473 41.5845C158.331 41.7263 158.145 41.7973 157.959 41.7973Z" fill="black"/>
<path d="M165.843 43.924L163.788 37.7574C163.708 37.5185 163.511 37.3378 163.266 37.2799C163.021 37.222 162.763 37.2951 162.585 37.4733L158.474 41.5844C158.296 41.7626 158.222 42.0202 158.28 42.2653C158.338 42.5104 158.519 42.7082 158.758 42.7878L164.924 44.8434C165.482 45.0292 166.029 44.4806 165.843 43.924Z" fill="#FFE88F"/>
<path d="M167.831 33.6913C167.782 33.4519 167.616 33.2533 167.389 33.1628C163.604 31.6521 159.298 32.5374 156.418 35.4179C153.537 38.2983 152.652 42.6048 154.163 46.389C154.353 46.8647 154.988 46.9966 155.351 46.6335L167.633 34.3517C167.806 34.1788 167.88 33.9306 167.831 33.6913Z" fill="#FFCF1A"/>
<path d="M155.977 45.4256C154.467 41.6415 155.352 37.3351 158.233 34.4545C158.712 33.9748 159.232 33.5517 159.782 33.1845C158.546 33.6868 157.399 34.4363 156.418 35.4177C153.537 38.2982 152.652 42.6046 154.162 46.3888C154.352 46.8645 154.988 46.9964 155.351 46.6333L156.237 45.7473C156.125 45.671 156.032 45.5633 155.977 45.4256Z" fill="#FFBE35"/>
<path d="M166.695 53.6906C166.299 53.6906 165.969 53.3599 165.969 52.9638C165.969 52.5678 166.299 52.2371 166.695 52.2371C168.443 52.2371 170.085 51.5568 171.32 50.3213C172.556 49.086 173.236 47.4435 173.236 45.6965C173.236 45.2951 173.562 44.9697 173.963 44.9697C174.364 44.9697 174.69 45.295 174.69 45.6965C174.69 47.8317 173.858 49.8392 172.348 51.3492C170.838 52.859 168.831 53.6906 166.695 53.6906Z" fill="#48DB87"/>
<path d="M166.695 50.7837C166.294 50.7837 165.969 50.4583 165.969 50.0569C165.969 49.6556 166.294 49.3302 166.695 49.3302C167.666 49.3302 168.579 48.9522 169.265 48.2659C169.951 47.5795 170.329 46.6671 170.329 45.6965C170.329 45.2951 170.655 44.9697 171.056 44.9697C171.457 44.9697 171.783 45.2951 171.783 45.6965C171.783 47.0553 171.254 48.3328 170.293 49.2936C169.332 50.2544 168.054 50.7837 166.695 50.7837Z" fill="#48DB87"/>
<path d="M166.695 47.8758C166.294 47.8758 165.969 47.5504 165.969 47.149C165.969 46.7477 166.294 46.4223 166.695 46.4223C166.89 46.4223 167.072 46.3467 167.209 46.2093C167.347 46.072 167.422 45.8896 167.422 45.6955C167.422 45.2941 167.748 44.9688 168.149 44.9688C168.55 44.9688 168.876 45.2941 168.876 45.6955C168.876 46.2778 168.649 46.8254 168.237 47.2372C167.825 47.6491 167.278 47.8758 166.695 47.8758Z" fill="#48DB87"/>
</g>
<g clip-path="url(#clip1)">
<path d="M41.7942 24.7817H31.6694V43.1323H48.2581V34.8727L46.3234 28.1862C45.7402 26.1698 43.8933 24.7817 41.7942 24.7817Z" fill="#FF7058"/>
<path d="M45.8362 34.7879L44.112 28.8277C43.8147 27.8031 42.8617 27.0861 41.7942 27.0861H33.9739V34.7879H45.8362Z" fill="#84DBFF"/>
<path d="M45.8384 34.7849H33.97V27.083L45.8384 34.7849Z" fill="#CDD6E0"/>
<path d="M45.8362 34.7879L44.112 28.8277C43.8147 27.8031 42.8617 27.0861 41.7942 27.0861H33.9739L45.8362 34.7879Z" fill="#F2F2F2"/>
<path d="M3.0644 15.569H28.6051C30.2966 15.569 31.6695 16.9408 31.6695 18.6334V43.1313H0V18.6334C0 16.9409 1.3718 15.569 3.0644 15.569Z" fill="#FFD15C"/>
<path d="M20.7562 15.5742V23.6713L19.5712 22.4864L18.3292 23.7286L17.0881 22.4864L15.847 23.7286L14.6038 22.4864L13.3465 23.7286L12.1064 22.4864L10.9072 23.6857V15.5742H20.7562Z" fill="#F2F2F2"/>
<path d="M49.0345 43.1302V46.593H0.00415039V43.1302H5.12169C6.31681 40.9851 8.61511 39.5346 11.2505 39.5346C13.8756 39.5346 16.1739 40.9851 17.3793 43.1302H33.8453C35.0405 40.9851 37.3276 39.5346 39.9629 39.5346C42.5983 39.5346 44.8864 40.9851 46.0917 43.1302H49.0345Z" fill="#334A5E"/>
<path d="M44.8567 46.5715C44.8567 49.2743 42.6657 51.4654 39.9629 51.4654C37.2601 51.4654 35.071 49.2743 35.071 46.5715C35.071 43.8687 37.261 41.6777 39.9629 41.6777C42.6667 41.6777 44.8567 43.8687 44.8567 46.5715Z" fill="#40596B"/>
<path d="M41.9302 46.5715C41.9302 47.6574 41.0497 48.5369 39.9649 48.5369C38.8791 48.5369 37.9976 47.6574 37.9976 46.5715C37.9976 45.4857 38.8781 44.6062 39.9649 44.6062C41.0497 44.6052 41.9302 45.4858 41.9302 46.5715Z" fill="#ACB3BA"/>
<path d="M16.1402 46.5715C16.1402 49.2743 13.9481 51.4654 11.2464 51.4654C8.54358 51.4654 6.35254 49.2743 6.35254 46.5715C6.35254 43.8687 8.54358 41.6777 11.2464 41.6777C13.9481 41.6777 16.1402 43.8687 16.1402 46.5715Z" fill="#40596B"/>
<path d="M13.2117 46.5715C13.2117 47.6574 12.3322 48.5369 11.2463 48.5369C10.1605 48.5369 9.28003 47.6574 9.28003 46.5715C9.28003 45.4857 10.1606 44.6062 11.2463 44.6062C12.3321 44.6062 13.2117 45.4858 13.2117 46.5715Z" fill="#ACB3BA"/>
</g>
<g clip-path="url(#clip2)">
<path d="M272.302 53.0398L274.798 56.9272C275.227 57.5957 275.968 58 276.762 58H297.237C298.032 58 298.772 57.5957 299.201 56.9272L301.697 53.0398L286.728 52.1335L272.302 53.0398Z" fill="#8C818F"/>
<path d="M273.895 55.52H300.105L301.698 53.0398H272.302L273.895 55.52Z" fill="#766D78"/>
<path d="M259.599 50.7059V13.4071C259.599 12.1181 260.644 11.0731 261.933 11.0731H312.067C313.356 11.0731 314.401 12.1181 314.401 13.4071V50.7059C314.401 51.9949 313.356 53.0399 312.067 53.0399H261.933C260.644 53.0398 259.599 51.9949 259.599 50.7059Z" fill="#8C818F"/>
<path d="M310.14 49.362H263.86C263.538 49.362 263.277 49.1008 263.277 48.7785V15.3344C263.277 15.0121 263.538 14.7509 263.86 14.7509H310.14C310.462 14.7509 310.723 15.0121 310.723 15.3344V48.7786C310.723 49.1008 310.462 49.362 310.14 49.362Z" fill="#77D1B3"/>
<path d="M310.14 14.7509H307.188V44.9275C307.188 45.2498 306.927 45.511 306.604 45.511H263.277V48.7786C263.277 49.1009 263.538 49.3621 263.86 49.3621H310.14C310.462 49.3621 310.723 49.1009 310.723 48.7786V15.3344C310.723 15.0121 310.462 14.7509 310.14 14.7509Z" fill="#67B59F"/>
<path d="M283.956 14.7509H263.86C263.538 14.7509 263.277 15.0121 263.277 15.3344V44.8875L283.956 14.7509Z" fill="#80B6FC"/>
<path d="M310.723 34.5925L293.362 22.6795L298.803 14.7507H283.956L263.277 44.8875V48.7956C263.277 49.1084 263.53 49.362 263.843 49.362H275.053L289.162 28.8011L310.723 43.5966V34.5925H310.723Z" fill="#DDEBFD"/>
<path d="M277.696 45.5109H263.277V48.7785C263.277 49.1007 263.538 49.3619 263.86 49.362H275.053L277.696 45.5109Z" fill="#BED9FD"/>
<path d="M310.723 34.5925L307.188 32.1666V41.1706L310.723 43.5965V34.5925Z" fill="#BED9FD"/>
<path d="M307.134 2.34144C304.033 -0.780479 298.984 -0.780479 295.883 2.34144C292.792 5.45395 292.884 10.5143 295.986 13.6162L301.124 18.754C301.336 18.9663 301.681 18.9663 301.893 18.754L307.031 13.6162C310.132 10.5143 310.225 5.45395 307.134 2.34144ZM303.446 9.86445C302.376 10.9343 300.641 10.9343 299.571 9.86445C298.501 8.79451 298.502 7.05994 299.571 5.99C300.641 4.92017 302.376 4.92017 303.446 5.99C304.516 7.05994 304.516 8.79462 303.446 9.86445Z" fill="#DF646E"/>
<path d="M307.133 2.34145C305.234 0.429258 302.604 -0.309562 300.138 0.120793C301.698 0.393008 303.192 1.13183 304.394 2.34145C307.485 5.45396 307.393 10.5143 304.291 13.6162L300.138 17.7685L301.124 18.754C301.336 18.9663 301.68 18.9663 301.893 18.754L307.03 13.6162C310.132 10.5143 310.225 5.45396 307.133 2.34145Z" fill="#DC4955"/>
<path d="M291.785 44.1746C293.291 43.9304 294.314 42.5113 294.07 41.005C293.826 39.4986 292.407 38.4755 290.9 38.7197C289.394 38.9639 288.371 40.3829 288.615 41.8893C288.859 43.3956 290.278 44.4188 291.785 44.1746Z" fill="#EEC06B"/>
</g>
<path d="M106.707 38.7071C107.098 38.3166 107.098 37.6834 106.707 37.2929L100.343 30.9289C99.9526 30.5384 99.3195 30.5384 98.9289 30.9289C98.5384 31.3195 98.5384 31.9526 98.9289 32.3431L104.586 38L98.9289 43.6569C98.5384 44.0474 98.5384 44.6805 98.9289 45.0711C99.3195 45.4616 99.9526 45.4616 100.343 45.0711L106.707 38.7071ZM65 39H106V37H65V39Z" fill="#848484"/>
<path d="M236.707 38.7071C237.098 38.3166 237.098 37.6834 236.707 37.2929L230.343 30.9289C229.953 30.5384 229.319 30.5384 228.929 30.9289C228.538 31.3195 228.538 31.9526 228.929 32.3431L234.586 38L228.929 43.6569C228.538 44.0474 228.538 44.6805 228.929 45.0711C229.319 45.4616 229.953 45.4616 230.343 45.0711L236.707 38.7071ZM195 39H236V37H195V39Z" fill="#848484"/>
<defs>
<clipPath id="clip0">
<rect width="44.6897" height="44.6897" fill="white" transform="translate(130 9)"/>
</clipPath>
<clipPath id="clip1">
<rect width="49.0345" height="49.0345" fill="white" transform="translate(0 9)"/>
</clipPath>
<clipPath id="clip2">
<rect width="58" height="58" fill="white" transform="translate(258)"/>
</clipPath>
</defs>
</svg>
