<svg width="320" height="67" viewBox="0 0 320 67" fill="none" xmlns="http://www.w3.org/2000/svg">
<path d="M99.7395 34.8392C100.13 34.4487 100.13 33.8155 99.7395 33.425L93.3756 27.061C92.9851 26.6705 92.3519 26.6705 91.9614 27.061C91.5708 27.4515 91.5708 28.0847 91.9614 28.4752L97.6182 34.1321L91.9614 39.7889C91.5708 40.1795 91.5708 40.8126 91.9614 41.2031C92.3519 41.5937 92.9851 41.5937 93.3756 41.2031L99.7395 34.8392ZM59.6733 35.1321H99.0324V33.1321H59.6733V35.1321Z" fill="#848484"/>
<g clip-path="url(#clip0)">
<path d="M27.2129 11.5077H41.2604V18.7335H27.2129V11.5077Z" fill="#41567F"/>
<path d="M34.2371 11.5077H41.2603V18.7335H34.2371V11.5077Z" fill="#293E65"/>
<path d="M25.2244 9.93372H43.2504V13.0817H25.2244V9.93372Z" fill="#5D7198"/>
<path d="M34.2371 9.93372H43.2501V13.0817H34.2371V9.93372Z" fill="#41567F"/>
<path d="M49.405 17.1595H4.55498L0 21.6938V51.9002L4.55498 56.4344H49.405L53.96 51.9002V21.6938L49.405 17.1595Z" fill="#CDDCEB"/>
<path d="M53.9599 21.6938V51.9002L49.4049 56.4344H34.2371V17.1595H49.4049L53.9599 21.6938Z" fill="#AFC8DB"/>
<path d="M50.7982 30.5554V50.5958L48.096 53.2863H5.86384L3.16162 50.5958V30.5564L34.2371 29.0863L50.7982 30.5554Z" fill="#8ADB51"/>
<path d="M50.7982 30.5554V50.5958L48.0959 53.2863H34.2371V29.0863L50.7982 30.5554Z" fill="#4AB564"/>
<path d="M50.7982 22.998V30.5554C49.0772 31.3099 48.565 33.184 46.0293 33.184C42.8539 33.184 42.8539 30.2458 39.6784 30.2458C36.8403 30.2458 36.5399 32.5953 34.2371 33.0917C33.9652 33.1515 33.6648 33.184 33.3286 33.184C30.1543 33.184 30.1543 30.2458 26.9789 30.2458C23.8045 30.2458 23.8045 33.184 20.6301 33.184C17.4547 33.184 17.4547 30.2458 14.2803 30.2458C11.1049 30.2458 11.1049 33.184 7.93055 33.184C5.3938 33.184 4.88265 31.3099 3.16162 30.5564V22.998L5.86384 20.3075H48.096L50.7982 22.998Z" fill="#EFF3F7"/>
<path d="M50.7982 22.998V30.5554C49.0771 31.3099 48.5649 33.184 46.0292 33.184C42.8538 33.184 42.8538 30.2458 39.6784 30.2458C36.8402 30.2458 36.5398 32.5953 34.2371 33.0917V20.3075H48.0959L50.7982 22.998Z" fill="#CDDCEB"/>
</g>
<g clip-path="url(#clip1)">
<path d="M145.904 32.3317C145.7 32.3317 145.495 32.2538 145.339 32.0979C145.028 31.7861 145.028 31.2808 145.339 30.969L148.162 28.1469C148.474 27.8353 148.98 27.8353 149.292 28.1469C149.603 28.4587 149.603 28.964 149.292 29.2758L146.469 32.0979C146.313 32.2538 146.108 32.3317 145.904 32.3317Z" fill="#556080"/>
<path d="M150.421 36.8472C150.217 36.8472 150.012 36.7693 149.856 36.6135C149.544 36.3017 149.544 35.7963 149.856 35.4846L152.679 32.6625C152.991 32.3509 153.497 32.351 153.809 32.6625C154.12 32.9742 154.12 33.4797 153.809 33.7913L150.985 36.6136C150.83 36.7693 150.625 36.8472 150.421 36.8472Z" fill="#556080"/>
<path d="M170.747 17.9874L163.972 11.2142C163.664 10.9068 163.15 10.9068 162.843 11.2142L147.033 27.0182C146.726 27.3257 146.726 27.8397 147.033 28.1471L153.809 34.9202C154.116 35.2277 154.63 35.2277 154.938 34.9202L170.747 19.1162C171.059 18.8045 171.059 18.2991 170.747 17.9874Z" fill="#56ACE1"/>
<path d="M167.924 15.1652L166.795 14.0364L162.843 17.9874L159.455 14.6009L158.326 15.7297L161.713 19.1162L158.89 21.9384L155.503 18.5518L154.373 19.6807L157.761 23.0671L154.938 25.8893L151.55 22.5028L150.421 23.6316L153.809 27.0182L149.856 30.9691L150.986 32.098L154.938 28.147L158.326 31.5336L159.455 30.4048L156.067 27.0182L158.89 24.196L162.278 27.5826L163.407 26.4537L160.02 23.0671L162.843 20.245L166.23 23.6316L167.36 22.5028L163.972 19.1162L167.924 15.1652Z" fill="#298ECC"/>
<path d="M139.693 38.5405C139.489 38.5405 139.285 38.4625 139.129 38.3067C138.817 37.995 138.817 37.4896 139.129 37.1779L141.952 34.3558C142.264 34.0442 142.769 34.0442 143.081 34.3558C143.393 34.6675 143.393 35.1729 143.081 35.4846L140.258 38.3067C140.102 38.4626 139.898 38.5405 139.693 38.5405Z" fill="#556080"/>
<path d="M144.21 43.056C144.006 43.056 143.802 42.978 143.646 42.8222C143.334 42.5105 143.334 42.0051 143.646 41.6934L146.469 38.8713C146.781 38.5597 147.286 38.5597 147.598 38.8713C147.91 39.183 147.91 39.6884 147.598 40.0001L144.775 42.8222C144.619 42.978 144.415 43.056 144.21 43.056Z" fill="#556080"/>
<path d="M145.904 42.8221L139.129 36.049C138.817 35.7374 138.311 35.7374 137.999 36.049L122.19 51.853C121.883 52.1605 121.883 52.6745 122.19 52.9819L128.965 59.755C129.273 60.0626 129.787 60.0626 130.095 59.755L145.904 43.9511C146.211 43.6436 146.211 43.1296 145.904 42.8221Z" fill="#56ACE1"/>
<path d="M143.081 40L141.952 38.8711L137.999 42.8221L134.612 39.4356L133.483 40.5643L136.87 43.951L134.047 46.7731L130.659 43.3865L129.53 44.5153L132.918 47.9019L130.095 50.7241L126.707 47.3376L125.578 48.4664L128.966 51.853L125.013 55.804L126.142 56.9328L130.095 52.9818L133.483 56.3683L134.612 55.2394L131.224 51.8529L134.047 49.0308L137.435 52.4173L138.564 51.2885L135.176 47.9019L137.999 45.0798L141.387 48.4663L142.516 47.3375L139.129 43.951L143.081 40Z" fill="#298ECC"/>
<path d="M153.245 45.6444L156.633 42.2579L139.694 25.3255L136.307 28.712L153.245 45.6444Z" fill="#778099"/>
<path d="M145.904 24.7604L136.87 15.7295C136.563 15.4222 136.048 15.4222 135.741 15.7295L126.707 24.7604C126.395 25.0722 126.395 25.5775 126.707 25.8893L135.741 34.9201C136.048 35.2275 136.563 35.2275 136.87 34.9201L145.904 25.8893C146.216 25.5775 146.216 25.0722 145.904 24.7604Z" fill="#EEEFF2"/>
<path d="M126.707 24.7605C126.395 25.0722 126.395 25.5776 126.707 25.8893L135.741 34.9202C136.048 35.2275 136.563 35.2275 136.87 34.9202L139.374 32.4169L129.211 22.2572L126.707 24.7605Z" fill="#DDDFE6"/>
<path d="M128.965 28.1464L130.094 29.2753L140.257 19.1158L139.128 17.987L128.965 28.1464Z" fill="#99A0B3"/>
<path d="M132.353 31.5327L133.482 32.6615L143.645 22.502L142.516 21.3732L132.353 31.5327Z" fill="#99A0B3"/>
<path d="M130.095 29.2753L133.18 26.1912L132.051 25.0623L128.966 28.1465L130.095 29.2753Z" fill="#8890A6"/>
<path d="M136.567 29.5783L135.438 28.4495L132.352 31.5337L133.482 32.6625L136.567 29.5783Z" fill="#8890A6"/>
<path d="M152.679 47.0069C152.475 47.0069 152.271 46.929 152.115 46.7732C151.803 46.4614 151.803 45.9561 152.115 45.6443L156.632 41.1288C156.944 40.8172 157.449 40.8172 157.761 41.1288C158.073 41.4406 158.073 41.9459 157.761 42.2577L153.244 46.7732C153.088 46.9289 152.884 47.0069 152.679 47.0069Z" fill="black"/>
<path d="M161.342 49.3428L159.083 42.5696C158.996 42.3072 158.779 42.1088 158.509 42.0452C158.24 41.9816 157.957 42.0619 157.761 42.2576L153.244 46.7731C153.049 46.9688 152.968 47.2518 153.032 47.521C153.095 47.7902 153.294 48.0074 153.556 48.0949L160.332 50.3526C160.944 50.5567 161.546 49.9542 161.342 49.3428Z" fill="#FFE88F"/>
<path d="M163.526 38.1035C163.472 37.8406 163.289 37.6224 163.04 37.523C158.882 35.8637 154.151 36.8361 150.986 39.9999C147.821 43.1637 146.848 47.8937 148.508 52.0502C148.717 52.5727 149.415 52.7175 149.814 52.3187L163.309 38.8289C163.498 38.639 163.58 38.3664 163.526 38.1035Z" fill="#FFCF1A"/>
<path d="M150.502 50.9922C148.842 46.8358 149.815 42.1058 152.98 38.9419C153.507 38.415 154.078 37.9503 154.682 37.547C153.325 38.0987 152.064 38.9219 150.985 39.9998C147.821 43.1636 146.848 47.8937 148.508 52.0501C148.716 52.5726 149.415 52.7174 149.814 52.3186L150.787 51.3454C150.664 51.2617 150.562 51.1434 150.502 50.9922Z" fill="#FFBE35"/>
<path d="M162.278 60.0698C161.843 60.0698 161.479 59.7066 161.479 59.2716C161.479 58.8367 161.843 58.4734 162.278 58.4734C164.198 58.4734 166.002 57.7262 167.36 56.3692C168.717 55.0123 169.464 53.2083 169.464 51.2894C169.464 50.8486 169.822 50.4912 170.263 50.4912C170.704 50.4912 171.061 50.8485 171.061 51.2894C171.061 53.6347 170.148 55.8397 168.489 57.4981C166.83 59.1565 164.624 60.0698 162.278 60.0698Z" fill="#48DB87"/>
<path d="M162.278 56.877C161.837 56.877 161.479 56.5196 161.479 56.0788C161.479 55.638 161.837 55.2806 162.278 55.2806C163.345 55.2806 164.347 54.8654 165.101 54.1115C165.855 53.3577 166.27 52.3555 166.27 51.2894C166.27 50.8486 166.628 50.4912 167.069 50.4912C167.51 50.4912 167.867 50.8486 167.867 51.2894C167.867 52.7819 167.286 54.1851 166.23 55.2404C165.175 56.2957 163.771 56.877 162.278 56.877Z" fill="#48DB87"/>
<path d="M162.278 53.6832C161.837 53.6832 161.479 53.3258 161.479 52.885C161.479 52.4442 161.837 52.0868 162.278 52.0868C162.491 52.0868 162.692 52.0037 162.843 51.8528C162.994 51.702 163.077 51.5017 163.077 51.2884C163.077 50.8476 163.434 50.4902 163.875 50.4902C164.316 50.4902 164.674 50.8476 164.674 51.2884C164.674 51.9281 164.424 52.5295 163.972 52.9818C163.519 53.4342 162.918 53.6832 162.278 53.6832Z" fill="#48DB87"/>
</g>
<path d="M234.542 34.8392C234.933 34.4487 234.933 33.8155 234.542 33.425L228.178 27.061C227.788 26.6705 227.154 26.6705 226.764 27.061C226.373 27.4515 226.373 28.0847 226.764 28.4752L232.421 34.1321L226.764 39.7889C226.373 40.1795 226.373 40.8126 226.764 41.2031C227.154 41.5937 227.788 41.5937 228.178 41.2031L234.542 34.8392ZM194.476 35.1321H233.835V33.1321H194.476V35.1321Z" fill="#848484"/>
<g clip-path="url(#clip2)">
<path d="M319.001 59.3991H260.343V0.995016C260.343 0.445484 259.895 0 259.343 0C258.791 0 258.344 0.445484 258.344 0.995016V6.12709H253.708C253.156 6.12709 252.709 6.57257 252.709 7.1221C252.709 7.67163 253.156 8.11712 253.708 8.11712H258.344V13.9845H255.409C254.857 13.9845 254.409 14.43 254.409 14.9795C254.409 15.529 254.857 15.9745 255.409 15.9745H258.344V21.8419H255.409C254.857 21.8419 254.409 22.2874 254.409 22.8369C254.409 23.3864 254.857 23.8319 255.409 23.8319H258.344V29.6993H253.708C253.156 29.6993 252.709 30.1448 252.709 30.6943C252.709 31.2438 253.156 31.6893 253.708 31.6893H258.344V37.5567H255.409C254.857 37.5567 254.409 38.0021 254.409 38.5517C254.409 39.1012 254.857 39.5467 255.409 39.5467H258.344V45.4141H255.409C254.857 45.4141 254.409 45.8595 254.409 46.4091C254.409 46.9586 254.857 47.4041 255.409 47.4041H258.344V53.2714H253.708C253.156 53.2714 252.709 53.7169 252.709 54.2665C252.709 54.816 253.156 55.2615 253.708 55.2615H258.344V59.3984H253.708C253.156 59.3984 252.709 59.8439 252.709 60.3934C252.709 60.9429 253.156 61.3884 253.708 61.3884H258.344V66.0042C258.344 66.5537 258.791 66.9992 259.343 66.9992C259.895 66.9992 260.343 66.5537 260.343 66.0042V61.3891H264.498V66.0049C264.498 66.5544 264.945 66.9999 265.497 66.9999C266.049 66.9999 266.496 66.5544 266.496 66.0049V61.3891H272.389V64.3117C272.389 64.8613 272.837 65.3067 273.389 65.3067C273.94 65.3067 274.388 64.8613 274.388 64.3117V61.3891H280.281V64.3117C280.281 64.8613 280.728 65.3067 281.28 65.3067C281.832 65.3067 282.279 64.8613 282.279 64.3117V61.3891H288.172V66.0049C288.172 66.5544 288.62 66.9999 289.172 66.9999C289.724 66.9999 290.171 66.5544 290.171 66.0049V61.3891H296.064V64.3117C296.064 64.8613 296.511 65.3067 297.063 65.3067C297.615 65.3067 298.063 64.8613 298.063 64.3117V61.3891H303.955V64.3117C303.955 64.8613 304.403 65.3067 304.955 65.3067C305.507 65.3067 305.954 64.8613 305.954 64.3117V61.3891H311.847V66.0049C311.847 66.5544 312.294 66.9999 312.846 66.9999C313.398 66.9999 313.846 66.5544 313.846 66.0049V61.3891H319C319.552 61.3891 319.999 60.9436 319.999 60.3941C319.999 59.8445 319.553 59.3991 319.001 59.3991V59.3991Z" fill="url(#paint0_linear)"/>
<path d="M300.874 37.3052C300.022 38.154 298.639 38.154 297.787 37.3052L290.327 29.8774C289.389 28.9432 288.116 28.4184 286.789 28.4184C285.462 28.4184 284.189 28.9432 283.251 29.8774C281.178 31.9414 277.634 30.4796 277.634 27.5606C277.634 21.2775 275.127 15.2518 270.665 10.8089L267.793 7.94959C266.088 6.25226 263.173 7.45432 263.173 9.85489V53.8864C263.173 55.3744 264.385 56.5808 265.88 56.5808L314.858 56.4494C315.84 56.4494 316.636 55.7883 316.636 54.8106C316.636 51.6822 315.387 48.6819 313.166 46.4699L303.961 37.3053C303.109 36.4564 301.727 36.4564 300.874 37.3052V37.3052Z" fill="url(#paint1_linear)"/>
<path d="M313.166 46.4699L303.961 37.3053C303.109 36.4565 301.727 36.4565 300.874 37.3053C300.022 38.1541 298.64 38.1541 297.787 37.3053L290.327 29.8775C289.389 28.9433 288.116 28.4185 286.789 28.4185C285.462 28.4185 284.19 28.9433 283.251 29.8775C281.178 31.9415 277.634 30.4797 277.634 27.5607C277.634 21.2776 275.127 15.2519 270.665 10.809L267.793 7.94971C266.088 6.25238 263.174 7.45444 263.174 9.85501V11.1475L265.385 13.3489C269.847 17.7918 272.354 23.8174 272.354 30.1006C272.354 33.0195 275.898 34.4813 277.971 32.4173C278.909 31.4831 280.182 30.9582 281.509 30.9582C282.836 30.9582 284.108 31.483 285.047 32.4173L292.507 39.8451C293.359 40.6939 294.741 40.6939 295.594 39.8451C296.446 38.9963 297.828 38.9963 298.681 39.8451L307.885 49.0098C309.924 51.0396 311.14 53.6023 311.327 56.4496H314.858C315.84 56.4496 316.636 55.7884 316.636 54.8107C316.636 51.6822 315.387 48.6819 313.166 46.4699Z" fill="url(#paint2_linear)"/>
<path d="M286.208 50.0309L290.231 51.5185C291.554 52.0076 293.04 51.7184 294.08 50.7694L301.38 44.1108C302.818 42.7997 305.023 42.7997 306.461 44.1108L316.262 53.0509C317.635 54.3029 316.745 56.5809 314.884 56.5809H265.878L283.59 50.0309C284.435 49.7185 285.364 49.7185 286.208 50.0309V50.0309Z" fill="url(#paint3_linear)"/>
<path d="M306.461 44.1108C305.024 42.7997 302.818 42.7997 301.381 44.1108L298.564 46.6796C299.979 45.7575 301.877 45.8813 303.161 47.0529L313.607 56.5809H314.884C316.745 56.5809 317.635 54.3029 316.262 53.0509L306.461 44.1108Z" fill="url(#paint4_linear)"/>
<path d="M290.231 51.5185L286.209 50.0309C285.364 49.7185 284.435 49.7185 283.59 50.0309L279.553 51.5237L286.931 54.4606C288.254 54.9497 289.74 54.6604 290.781 53.7115L293.603 51.1375C292.613 51.784 291.363 51.9369 290.231 51.5185Z" fill="url(#paint5_linear)"/>
<path d="M318.205 6.1745H301.483C301.056 6.1745 300.71 5.82991 300.71 5.40479V2.74029C300.71 2.31517 301.056 1.97058 301.483 1.97058H318.205C318.632 1.97058 318.978 2.31517 318.978 2.74029V5.40479C318.978 5.82991 318.632 6.1745 318.205 6.1745Z" fill="url(#paint6_linear)"/>
<path d="M309.07 12.3489H301.483C301.056 12.3489 300.709 12.0043 300.709 11.5792V8.91473C300.709 8.48961 301.056 8.14502 301.483 8.14502H309.07C309.497 8.14502 309.844 8.48961 309.844 8.91473V11.5792C309.843 12.0043 309.497 12.3489 309.07 12.3489Z" fill="url(#paint7_linear)"/>
<path d="M298.194 6.1745H295.485C295.067 6.1745 294.728 5.83714 294.728 5.42108V2.724C294.728 2.30795 295.067 1.97058 295.485 1.97058H298.194C298.612 1.97058 298.95 2.30795 298.95 2.724V5.42108C298.95 5.83714 298.612 6.1745 298.194 6.1745V6.1745Z" fill="url(#paint8_linear)"/>
<path d="M298.194 12.3489H295.485C295.067 12.3489 294.728 12.0116 294.728 11.5955V8.89844C294.728 8.48238 295.067 8.14502 295.485 8.14502H298.194C298.611 8.14502 298.95 8.48238 298.95 8.89844V11.5955C298.95 12.0116 298.611 12.3489 298.194 12.3489V12.3489Z" fill="url(#paint9_linear)"/>
</g>
<defs>
<linearGradient id="paint0_linear" x1="252.709" y1="33.5" x2="320" y2="33.5" gradientUnits="userSpaceOnUse">
<stop stop-color="#D8ECFE"/>
<stop offset="0.5667" stop-color="#B3DAFE"/>
<stop offset="0.9955" stop-color="#8AC9FE"/>
</linearGradient>
<linearGradient id="paint1_linear" x1="266.431" y1="31.8679" x2="323.149" y2="31.8679" gradientUnits="userSpaceOnUse">
<stop stop-color="#FD8087"/>
<stop offset="0.5213" stop-color="#FB2B3A"/>
<stop offset="1" stop-color="#D90D80"/>
</linearGradient>
<linearGradient id="paint2_linear" x1="245.056" y1="31.8022" x2="318.153" y2="31.8022" gradientUnits="userSpaceOnUse">
<stop stop-color="#FD8087"/>
<stop offset="0.5213" stop-color="#FB2B3A"/>
<stop offset="1" stop-color="#D90D80"/>
</linearGradient>
<linearGradient id="paint3_linear" x1="262.593" y1="49.8541" x2="318.241" y2="49.8541" gradientUnits="userSpaceOnUse">
<stop stop-color="#FBC56D"/>
<stop offset="0.5841" stop-color="#FE9738"/>
<stop offset="0.9984" stop-color="#FB2B3A"/>
</linearGradient>
<linearGradient id="paint4_linear" x1="259.305" y1="49.8541" x2="315.571" y2="49.8541" gradientUnits="userSpaceOnUse">
<stop stop-color="#FBC56D"/>
<stop offset="0.5841" stop-color="#FE9738"/>
<stop offset="0.9984" stop-color="#FB2B3A"/>
</linearGradient>
<linearGradient id="paint5_linear" x1="252.456" y1="52.2457" x2="318.537" y2="52.2457" gradientUnits="userSpaceOnUse">
<stop stop-color="#FBC56D"/>
<stop offset="0.5841" stop-color="#FE9738"/>
<stop offset="0.9984" stop-color="#FB2B3A"/>
</linearGradient>
<linearGradient id="paint6_linear" x1="301.53" y1="4.07254" x2="321.475" y2="4.07254" gradientUnits="userSpaceOnUse">
<stop stop-color="#D8ECFE"/>
<stop offset="0.5667" stop-color="#B3DAFE"/>
<stop offset="0.9955" stop-color="#8AC9FE"/>
</linearGradient>
<linearGradient id="paint7_linear" x1="301.529" y1="10.247" x2="321.474" y2="10.247" gradientUnits="userSpaceOnUse">
<stop stop-color="#D8ECFE"/>
<stop offset="0.5667" stop-color="#B3DAFE"/>
<stop offset="0.9955" stop-color="#8AC9FE"/>
</linearGradient>
<linearGradient id="paint8_linear" x1="293.546" y1="4.07254" x2="299.644" y2="4.07254" gradientUnits="userSpaceOnUse">
<stop stop-color="#FD8087"/>
<stop offset="0.5213" stop-color="#FB2B3A"/>
<stop offset="1" stop-color="#D90D80"/>
</linearGradient>
<linearGradient id="paint9_linear" x1="294.205" y1="10.247" x2="300.041" y2="10.247" gradientUnits="userSpaceOnUse">
<stop stop-color="#FBC56D"/>
<stop offset="0.5841" stop-color="#FE9738"/>
<stop offset="0.9984" stop-color="#FB2B3A"/>
</linearGradient>
<clipPath id="clip0">
<rect width="53.96" height="53.7264" fill="white" transform="translate(0 6.3208)"/>
</clipPath>
<clipPath id="clip1">
<rect width="49.102" height="49.0854" fill="white" transform="translate(121.959 10.9836)"/>
</clipPath>
<clipPath id="clip2">
<rect width="67.2913" height="67" fill="white" transform="translate(252.709)"/>
</clipPath>
</defs>
</svg>
