<svg width="367" height="68" viewBox="0 0 367 68" fill="none" xmlns="http://www.w3.org/2000/svg">
<g clip-path="url(#clip0)">
<path d="M130.236 30.9842C130.043 30.9842 129.85 30.9106 129.703 30.7635C129.408 30.4691 129.408 29.9921 129.703 29.6978L132.367 27.0336C132.661 26.7395 133.138 26.7395 133.432 27.0336C133.727 27.3279 133.727 27.805 133.432 28.0993L130.768 30.7635C130.621 30.9106 130.428 30.9842 130.236 30.9842Z" fill="#556080"/>
<path d="M134.498 35.2469C134.305 35.2469 134.112 35.1733 133.965 35.0262C133.671 34.7319 133.671 34.2548 133.965 33.9606L136.629 31.2964C136.924 31.0022 137.401 31.0023 137.695 31.2964C137.989 31.5907 137.989 32.0678 137.695 32.3621L135.031 35.0263C134.884 35.1733 134.691 35.2469 134.498 35.2469Z" fill="#556080"/>
<path d="M153.681 17.4426L147.287 11.0484C146.996 10.7583 146.511 10.7583 146.221 11.0484L131.301 25.968C131.011 26.2582 131.011 26.7435 131.301 27.0337L137.695 33.4277C137.986 33.7181 138.471 33.7181 138.761 33.4277L153.681 18.5083C153.975 18.2139 153.975 17.7369 153.681 17.4426Z" fill="#56ACE1"/>
<path d="M151.016 14.7783L149.951 13.7126L146.221 17.4425L143.024 14.2455L141.958 15.3112L145.155 18.5082L142.491 21.1724L139.294 17.9754L138.228 19.0411L141.425 22.238L138.761 24.9023L135.564 21.7053L134.498 22.7709L137.695 25.9679L133.966 29.6977L135.031 30.7634L138.761 27.0335L141.958 30.2306L143.024 29.165L139.827 25.9679L142.491 23.3037L145.688 26.5007L146.754 25.4351L143.557 22.238L146.221 19.5738L149.418 22.7709L150.484 21.7053L147.286 18.5082L151.016 14.7783Z" fill="#298ECC"/>
<path d="M124.374 36.8454C124.182 36.8454 123.989 36.7719 123.842 36.6248C123.547 36.3305 123.547 35.8534 123.842 35.5591L126.506 32.8949C126.8 32.6008 127.277 32.6008 127.571 32.8949C127.866 33.1892 127.866 33.6663 127.571 33.9606L124.907 36.6248C124.76 36.7719 124.567 36.8454 124.374 36.8454Z" fill="#556080"/>
<path d="M128.637 41.1083C128.445 41.1083 128.252 41.0347 128.105 40.8876C127.81 40.5933 127.81 40.1162 128.105 39.8219L130.769 37.1577C131.063 36.8636 131.54 36.8636 131.834 37.1577C132.129 37.4521 132.129 37.9291 131.834 38.2234L129.17 40.8876C129.023 41.0347 128.83 41.1083 128.637 41.1083Z" fill="#556080"/>
<path d="M130.235 40.8875L123.841 34.4934C123.547 34.1993 123.07 34.1993 122.776 34.4934L107.856 49.413C107.566 49.7032 107.566 50.1885 107.856 50.4787L114.25 56.8727C114.541 57.1631 115.026 57.1631 115.316 56.8727L130.235 41.9533C130.526 41.663 130.526 41.1778 130.235 40.8875Z" fill="#56ACE1"/>
<path d="M127.571 38.2233L126.506 37.1576L122.776 40.8875L119.579 37.6905L118.513 38.7561L121.71 41.9532L119.046 44.6173L115.849 41.4203L114.783 42.486L117.98 45.683L115.316 48.3472L112.119 45.1502L111.053 46.2159L114.25 49.413L110.521 53.1428L111.586 54.2084L115.316 50.4786L118.513 53.6756L119.579 52.6099L116.382 49.4129L119.046 46.7487L122.243 49.9457L123.309 48.8801L120.112 45.683L122.776 43.0188L125.973 46.2158L127.038 45.1501L123.841 41.9532L127.571 38.2233Z" fill="#298ECC"/>
<path d="M137.163 43.5519L140.36 40.355L124.375 24.3701L121.178 27.5671L137.163 43.5519Z" fill="#778099"/>
<path d="M130.235 23.8367L121.71 15.3112C121.42 15.0211 120.934 15.0211 120.644 15.3112L112.119 23.8367C111.825 24.131 111.825 24.608 112.119 24.9024L120.644 33.4278C120.935 33.7179 121.42 33.7179 121.71 33.4278L130.235 24.9024C130.53 24.608 130.53 24.131 130.235 23.8367Z" fill="#EEEFF2"/>
<path d="M112.119 23.8367C111.825 24.131 111.825 24.608 112.119 24.9024L120.644 33.4278C120.935 33.7179 121.42 33.7179 121.71 33.4278L124.073 31.0646L114.482 21.4735L112.119 23.8367Z" fill="#DDDFE6"/>
<path d="M114.251 27.0332L115.316 28.0989L124.907 18.508L123.841 17.4423L114.251 27.0332Z" fill="#99A0B3"/>
<path d="M117.447 30.2299L118.513 31.2955L128.104 21.7046L127.038 20.639L117.447 30.2299Z" fill="#99A0B3"/>
<path d="M115.317 28.0989L118.229 25.1874L117.163 24.1217L114.251 27.0333L115.317 28.0989Z" fill="#8890A6"/>
<path d="M121.425 28.385L120.359 27.3193L117.447 30.231L118.513 31.2966L121.425 28.385Z" fill="#8890A6"/>
<path d="M136.63 44.8381C136.437 44.8381 136.244 44.7645 136.097 44.6174C135.803 44.3231 135.803 43.846 136.097 43.5517L140.36 39.289C140.654 38.9948 141.131 38.9948 141.425 39.289C141.72 39.5833 141.72 40.0603 141.425 40.3547L137.163 44.6174C137.015 44.7644 136.823 44.8381 136.63 44.8381Z" fill="black"/>
<path d="M144.804 47.0432L142.673 40.649C142.59 40.4013 142.385 40.214 142.131 40.154C141.877 40.094 141.61 40.1697 141.425 40.3545L137.163 44.6173C136.978 44.802 136.902 45.0692 136.962 45.3233C137.022 45.5775 137.209 45.7825 137.457 45.8651L143.851 47.9964C144.429 48.1891 144.997 47.6203 144.804 47.0432Z" fill="#FFE88F"/>
<path d="M146.866 36.4331C146.815 36.1849 146.643 35.9789 146.407 35.885C142.483 34.3186 138.018 35.2366 135.032 38.2233C132.045 41.2101 131.127 45.6754 132.693 49.5992C132.89 50.0924 133.549 50.2292 133.926 49.8527L146.661 37.1178C146.84 36.9385 146.917 36.6812 146.866 36.4331Z" fill="#FFCF1A"/>
<path d="M134.574 48.6003C133.008 44.6766 133.926 40.2113 136.913 37.2244C137.41 36.727 137.949 36.2883 138.519 35.9076C137.238 36.4284 136.049 37.2055 135.031 38.2231C132.044 41.2099 131.126 45.6752 132.692 49.599C132.889 50.0923 133.549 50.229 133.925 49.8525L134.844 48.9338C134.728 48.8547 134.631 48.743 134.574 48.6003Z" fill="#FFBE35"/>
<path d="M145.688 57.1701C145.277 57.1701 144.934 56.8272 144.934 56.4166C144.934 56.006 145.277 55.663 145.688 55.663C147.499 55.663 149.203 54.9577 150.483 53.6766C151.764 52.3957 152.47 50.6925 152.47 48.8811C152.47 48.465 152.807 48.1276 153.223 48.1276C153.639 48.1276 153.977 48.4649 153.977 48.8811C153.977 51.0951 153.115 53.1767 151.549 54.7423C149.984 56.3079 147.902 57.1701 145.688 57.1701Z" fill="#48DB87"/>
<path d="M145.688 54.156C145.272 54.156 144.934 53.8186 144.934 53.4024C144.934 52.9863 145.272 52.6489 145.688 52.6489C146.694 52.6489 147.64 52.2569 148.352 51.5453C149.064 50.8336 149.456 49.8875 149.456 48.8811C149.456 48.465 149.793 48.1276 150.209 48.1276C150.625 48.1276 150.963 48.465 150.963 48.8811C150.963 50.2901 150.414 51.6147 149.418 52.611C148.422 53.6072 147.097 54.156 145.688 54.156Z" fill="#48DB87"/>
<path d="M145.688 51.1407C145.272 51.1407 144.935 50.8033 144.935 50.3872C144.935 49.971 145.272 49.6336 145.688 49.6336C145.889 49.6336 146.079 49.5553 146.221 49.4128C146.363 49.2704 146.442 49.0813 146.442 48.88C146.442 48.4639 146.779 48.1265 147.195 48.1265C147.611 48.1265 147.949 48.4639 147.949 48.88C147.949 49.4838 147.714 50.0516 147.287 50.4786C146.86 50.9057 146.292 51.1407 145.688 51.1407Z" fill="#48DB87"/>
</g>
<g clip-path="url(#clip1)">
<path d="M14.8411 55.0369L17.4312 59.0707C17.8767 59.7644 18.6446 60.1839 19.4691 60.1839H40.7153C41.5398 60.1839 42.3077 59.7644 42.7532 59.0707L45.3434 55.0369L29.8099 54.0966L14.8411 55.0369Z" fill="#8C818F"/>
<path d="M16.4937 57.6104H43.6909L45.3435 55.0369H14.8411L16.4937 57.6104Z" fill="#766D78"/>
<path d="M1.65967 52.6151V13.9119C1.65967 12.5744 2.74404 11.49 4.0816 11.49H56.1033C57.4409 11.49 58.5252 12.5744 58.5252 13.9119V52.6151C58.5252 53.9527 57.4409 55.037 56.1033 55.037H4.08148C2.74392 55.0369 1.65967 53.9527 1.65967 52.6151V52.6151Z" fill="#8C818F"/>
<path d="M54.1034 51.2205H6.08131C5.74689 51.2205 5.47583 50.9495 5.47583 50.6151V15.9116C5.47583 15.5772 5.74689 15.3062 6.08131 15.3062H54.1034C54.4378 15.3062 54.7089 15.5772 54.7089 15.9116V50.6152C54.7089 50.9495 54.4378 51.2205 54.1034 51.2205Z" fill="#77D1B3"/>
<path d="M54.1034 15.3062H51.0403V46.6191C51.0403 46.9535 50.7693 47.2245 50.4349 47.2245H5.47583V50.6152C5.47583 50.9496 5.74689 51.2207 6.08131 51.2207H54.1034C54.4378 51.2207 54.7089 50.9496 54.7089 50.6152V15.9116C54.7089 15.5772 54.4378 15.3062 54.1034 15.3062V15.3062Z" fill="#67B59F"/>
<path d="M26.934 15.3062H6.08131C5.74689 15.3062 5.47583 15.5772 5.47583 15.9116V46.5776L26.934 15.3062Z" fill="#80B6FC"/>
<path d="M54.7089 35.895L36.6941 23.5335L42.3397 15.3062H26.934L5.47583 46.5777V50.6329C5.47583 50.9575 5.73902 51.2207 6.06356 51.2207H17.6954L32.3352 29.8856L54.7087 45.2381V35.895H54.7089Z" fill="#DDEBFD"/>
<path d="M20.4375 47.2245H5.47583V50.6151C5.47583 50.9495 5.74689 51.2205 6.08131 51.2206H17.6955L20.4375 47.2245Z" fill="#BED9FD"/>
<path d="M54.7088 35.8949L51.0403 33.3777V42.7208L54.7088 45.238V35.8949Z" fill="#BED9FD"/>
<path d="M50.9836 2.4296C47.7664 -0.809867 42.5269 -0.809867 39.3096 2.4296C36.102 5.65932 36.1979 10.9102 39.4166 14.1289L44.7478 19.4601C44.9681 19.6804 45.3252 19.6804 45.5456 19.4601L50.8768 14.1289C54.0953 10.9102 54.1912 5.65932 50.9836 2.4296V2.4296ZM47.1568 10.2359C46.0466 11.346 44.2467 11.346 43.1366 10.2359C42.0263 9.12565 42.0265 7.32577 43.1366 6.21555C44.2467 5.10543 46.0467 5.10543 47.1568 6.21555C48.2669 7.32577 48.2669 9.12577 47.1568 10.2359Z" fill="#DF646E"/>
<path d="M50.9837 2.42959C49.0131 0.445407 46.284 -0.321233 43.7253 0.125327C45.3438 0.407792 46.8944 1.17443 48.141 2.42959C51.3486 5.65931 51.2527 10.9102 48.034 14.1289L43.7253 18.4376L44.7479 19.4601C44.9682 19.6804 45.3253 19.6804 45.5457 19.4601L50.8769 14.1289C54.0954 10.9102 54.1913 5.65931 50.9837 2.42959V2.42959Z" fill="#DC4955"/>
<path d="M35.0568 45.8379C36.6199 45.5845 37.6816 44.112 37.4282 42.5489C37.1748 40.9859 35.7023 39.9242 34.1392 40.1776C32.5762 40.4309 31.5145 41.9035 31.7679 43.4665C32.0213 45.0296 33.4938 46.0913 35.0568 45.8379Z" fill="#EEC06B"/>
</g>
<g clip-path="url(#clip2)">
<path d="M239.285 42.7652V56.1642H195.626V42.7652L199.088 39.4154H235.935L239.285 42.7652Z" fill="#537983"/>
<path d="M239.285 42.765V56.1641H217.511V39.4153H235.935L239.285 42.765Z" fill="#3E5959"/>
<path d="M239.285 26.0164V42.7651H195.626V26.0164L199.088 22.6666H235.935L239.285 26.0164Z" fill="#3E5959"/>
<path d="M239.285 26.0163V42.765H217.511V22.6665H235.935L239.285 26.0163Z" fill="#293939"/>
<path d="M195.626 12.6174H239.284V26.0164H195.626V12.6174Z" fill="#537983"/>
<path d="M217.511 12.6174H239.285V26.0164H217.511V12.6174Z" fill="#3E5959"/>
<path d="M202.437 19.3169H205.787V22.6666H202.437V19.3169Z" fill="#64E1DC"/>
<path d="M209.136 19.3169H212.486V22.6666H209.136V19.3169Z" fill="#64E1DC"/>
<path d="M215.836 19.3169H219.186V22.6666H215.836V19.3169Z" fill="#64E1DC"/>
<path d="M202.437 32.7159H205.787V36.0657H202.437V32.7159Z" fill="black"/>
<path d="M209.137 32.7159H212.486V36.0657H209.137V32.7159Z" fill="black"/>
<path d="M215.836 32.7159H219.186V36.0657H215.836V32.7159Z" fill="black"/>
<path d="M202.437 46.115H205.787V49.4647H202.437V46.115Z" fill="#64E1DC"/>
<path d="M209.137 46.115H212.486V49.4647H209.137V46.115Z" fill="#64E1DC"/>
<path d="M242.634 46.1149H242.065C240.658 42.1622 236.873 39.4154 232.585 39.4154C228.264 39.4154 224.445 42.1958 223.072 46.182C220.794 46.5169 218.818 47.7228 217.511 49.4983C216.774 50.4696 216.238 51.5751 216.004 52.8145H215.836C212.152 52.8145 209.137 55.8294 209.137 59.514C209.137 63.1987 212.152 66.2135 215.836 66.2135H242.634C248.161 66.2135 252.795 61.6915 252.795 56.1643C252.795 50.6371 248.161 46.1149 242.634 46.1149Z" fill="#E0F4FF"/>
<path d="M252.795 56.1642C252.795 61.6914 248.162 66.2134 242.634 66.2134H217.511V49.4982C218.818 47.7227 220.794 46.5169 223.072 46.1819C224.445 42.1958 228.264 39.4154 232.585 39.4154C236.873 39.4154 240.658 42.1622 242.065 46.1149H242.634C248.162 46.1149 252.795 50.637 252.795 56.1642Z" fill="#BBDCFF"/>
<path d="M217.511 19.3169H219.186V22.6666H217.511V19.3169Z" fill="#00C8C8"/>
<path d="M202.437 32.7159H205.787V36.0657H202.437V32.7159Z" fill="#00C8C8"/>
<path d="M209.136 32.7161H212.486V36.0658H209.136V32.7161Z" fill="#00C8C8"/>
<path d="M215.836 32.7161H219.186V36.0658H215.836V32.7161Z" fill="#00C8C8"/>
<path d="M217.511 32.7159H219.186V36.0657H217.511V32.7159Z" fill="#1CADB5"/>
</g>
<g clip-path="url(#clip3)">
<path d="M253.29 11.8531C251.011 11.3123 248.175 10.6392 245.549 6.67567C244.152 4.56693 241.81 3.30798 239.284 3.30798C236.756 3.30798 234.412 4.56908 233.015 6.68211C230.321 10.7572 227.502 11.3667 225.238 11.8567C223.285 12.2787 220.972 12.7258 220.972 16.1836C220.972 17.4919 221.448 18.5069 222.469 19.3789C223.305 20.0921 224.462 20.6722 225.927 21.4068C226.402 21.645 226.925 21.9068 227.482 22.1965L239.284 23.4497L251.087 22.1965C251.645 21.9061 252.169 21.6436 252.645 21.4047C254.111 20.6693 255.269 20.0885 256.104 19.3753C257.122 18.5055 257.596 17.4912 257.596 16.1836C257.596 12.9468 255.493 12.376 253.29 11.8531V11.8531Z" fill="#596C76"/>
<path d="M253.29 11.8531C251.011 11.3123 248.175 10.6392 245.549 6.67567C244.152 4.56693 241.81 3.30798 239.284 3.30798V23.4497L251.087 22.1965C251.645 21.9061 252.169 21.6436 252.645 21.4047C254.111 20.6693 255.269 20.0885 256.104 19.3753C257.122 18.5055 257.596 17.4912 257.596 16.1836C257.596 12.9468 255.493 12.376 253.29 11.8531V11.8531Z" fill="#465A61"/>
<path d="M244.386 12.3796C244.261 11.9933 243.928 11.7108 243.526 11.6507L241.266 11.3102L240.244 9.26585C240.062 8.90247 239.69 8.67285 239.284 8.67285C238.878 8.67285 238.506 8.90247 238.324 9.26585L237.303 11.3102L235.042 11.6507C234.64 11.7108 234.308 11.9933 234.182 12.3796C234.057 12.7666 234.16 13.1908 234.449 13.4762L236.077 15.0792L235.703 17.3339C235.636 17.7351 235.802 18.1393 236.131 18.3782C236.459 18.6171 236.895 18.6493 237.255 18.4619L239.284 17.409L241.313 18.4619C241.676 18.6507 242.111 18.615 242.437 18.3782C242.766 18.1393 242.932 17.7351 242.865 17.3339L242.491 15.0792L244.119 13.4762C244.409 13.1908 244.512 12.7666 244.386 12.3796V12.3796Z" fill="#FFDA2D"/>
<path d="M244.119 13.4762L242.491 15.0792L242.865 17.3338C242.932 17.7351 242.766 18.1393 242.437 18.3782C242.111 18.615 241.676 18.6507 241.313 18.4619L239.284 17.409V8.67285C239.69 8.67285 240.062 8.90247 240.244 9.26585L241.266 11.3102L243.526 11.6507C243.928 11.7108 244.261 11.9933 244.386 12.3796C244.512 12.7666 244.409 13.1908 244.119 13.4762V13.4762Z" fill="#FDBF00"/>
<path d="M251.087 22.1965V25.8403C251.087 26.4326 250.606 26.9133 250.014 26.9133H228.554C227.962 26.9133 227.481 26.4326 227.481 25.8403V22.1965H251.087Z" fill="#FFDA2D"/>
<path d="M251.087 22.1965V25.8403C251.087 26.4326 250.606 26.9133 250.014 26.9133H239.284V22.1965H251.087Z" fill="#FDBF00"/>
<path d="M252.066 25.1622C251.594 24.9319 250.977 24.7838 250.123 24.6958H228.445C227.592 24.7838 226.974 24.9319 226.502 25.1622C225.487 25.6579 225.335 26.4505 225.335 26.8782C225.335 28.8761 228.398 30.5628 229.715 31.1951C231.365 31.987 234.802 33.316 239.284 33.316C243.766 33.316 247.203 31.987 248.853 31.1951C250.17 30.5628 253.233 28.8761 253.233 26.8782C253.233 26.4505 253.081 25.6579 252.066 25.1622Z" fill="#596C76"/>
<path d="M253.233 26.8782C253.233 28.8761 250.17 30.5628 248.853 31.1951C247.203 31.987 243.766 33.316 239.284 33.316V24.6958H250.123C250.977 24.7838 251.594 24.9319 252.066 25.1622C253.081 25.6579 253.233 26.4505 253.233 26.8782Z" fill="#465A61"/>
</g>
<g clip-path="url(#clip4)">
<path d="M333.635 63.4221C349.422 63.4221 362.22 50.6243 362.22 34.8375C362.22 19.0507 349.422 6.25293 333.635 6.25293C317.849 6.25293 305.051 19.0507 305.051 34.8375C305.051 50.6243 317.849 63.4221 333.635 63.4221Z" fill="#0CC27C"/>
<path d="M362.22 34.8375C362.22 32.8417 362.015 30.894 361.625 29.0137L348.672 16.0603L318.599 53.6147L327.812 62.8277C329.692 63.2168 331.64 63.422 333.635 63.422C349.422 63.422 362.22 50.6243 362.22 34.8375Z" fill="#0DA366"/>
<path d="M348.671 16.0598H318.598V53.6139H348.671V16.0598Z" fill="white"/>
<path d="M348.671 16.0598H333.63V53.6139H348.671V16.0598Z" fill="#DFDFDF"/>
<path d="M345.442 46.6824V46.485C345.442 45.8639 344.938 45.3584 344.318 45.3542V44.9539H343.287V45.3542C342.667 45.3583 342.163 45.8638 342.163 46.485V47.0535C342.163 47.6772 342.671 48.1847 343.295 48.1847H344.311C344.366 48.1847 344.41 48.2295 344.41 48.2844V48.8668C344.41 48.9219 344.366 48.9665 344.311 48.9665H343.295C343.239 48.9665 343.195 48.9217 343.195 48.8668V48.7376H342.163V48.8668C342.163 49.488 342.667 49.9934 343.287 49.9977V50.398H344.318V49.9977C344.938 49.9934 345.442 49.488 345.442 48.8668V48.2844C345.442 47.6607 344.934 47.1532 344.311 47.1532H343.295C343.239 47.1532 343.195 47.1084 343.195 47.0535V46.485C343.195 46.43 343.239 46.3853 343.295 46.3853H344.311C344.366 46.3853 344.41 46.4301 344.41 46.485V46.6824H345.442Z" fill="#AFBDC4"/>
<path d="M329.556 19.7325H327.163V25.969H325.701V19.7325H323.298V18.4513H329.556V19.7325Z" fill="#455A64"/>
<path d="M330.083 25.9689L333.048 18.4512H334.234L337.188 25.9689H335.642L334.954 24.0947H332.317L331.629 25.9689H330.083ZM333.641 20.0288L332.561 23.0677H334.689L333.641 20.0288Z" fill="#455A64"/>
<path d="M334.234 18.4513H333.63V20.0587L333.641 20.0289L334.689 23.0678H333.63V24.095H334.954L335.642 25.969H337.188L334.234 18.4513Z" fill="#37474F"/>
<path d="M339.588 18.4512L341.463 21.2464L343.326 18.4512H344.904L342.225 22.263L344.819 25.9689H343.241L341.463 23.2794L339.673 25.9689H338.085L340.679 22.263L338 18.4512H339.588V18.4512Z" fill="#37474F"/>
<path d="M328.834 28.9753H321.632V31.5435H328.834V28.9753Z" fill="#CED7DB"/>
<path d="M337.236 28.9753H330.034V31.5435H337.236V28.9753Z" fill="#CED7DB"/>
<path d="M337.236 28.9753H333.63V31.5435H337.236V28.9753Z" fill="#AFBDC4"/>
<path d="M345.639 28.9753H338.437V31.5435H345.639V28.9753Z" fill="#AFBDC4"/>
<path d="M328.834 32.9247H321.632V35.4928H328.834V32.9247Z" fill="#CED7DB"/>
<path d="M337.236 32.9246H330.034V35.4927H337.236V32.9246Z" fill="#CED7DB"/>
<path d="M337.236 32.9247H333.63V35.4928H337.236V32.9247Z" fill="#AFBDC4"/>
<path d="M345.639 32.9246H338.437V35.4927H345.639V32.9246Z" fill="#AFBDC4"/>
<path d="M328.834 36.8752H321.632V39.4434H328.834V36.8752Z" fill="#CED7DB"/>
<path d="M337.236 36.8752H330.034V39.4434H337.236V36.8752Z" fill="#CED7DB"/>
<path d="M337.236 36.8752H333.63V39.4434H337.236V36.8752Z" fill="#AFBDC4"/>
<path d="M345.639 36.8752H338.437V39.4434H345.639V36.8752Z" fill="#AFBDC4"/>
<path d="M328.834 40.8246H321.632V43.3927H328.834V40.8246Z" fill="#CED7DB"/>
<path d="M337.236 40.8247H330.034V43.3929H337.236V40.8247Z" fill="#CED7DB"/>
<path d="M337.236 40.8246H333.63V43.3927H337.236V40.8246Z" fill="#AFBDC4"/>
<path d="M345.639 40.8247H338.437V43.3929H345.639V40.8247Z" fill="#AFBDC4"/>
<path d="M328.834 44.775H321.632V47.3432H328.834V44.775Z" fill="#CED7DB"/>
<path d="M337.236 44.7749H330.034V47.343H337.236V44.7749Z" fill="#CED7DB"/>
<path d="M337.236 44.775H333.63V47.3432H337.236V44.775Z" fill="#AFBDC4"/>
</g>
<g clip-path="url(#clip5)">
<path d="M352.227 34.0558C344.13 34.0558 337.543 40.6423 337.543 48.7389C337.543 56.8355 344.13 63.422 352.227 63.422C360.323 63.422 366.91 56.8355 366.91 48.7389C366.91 40.6423 360.323 34.0558 352.227 34.0558Z" fill="black"/>
<path d="M359.669 45.6272L351.715 53.5804C351.477 53.819 351.163 53.9391 350.85 53.9391C350.537 53.9391 350.224 53.819 349.985 53.5804L346.009 49.6038C345.53 49.1255 345.53 48.3521 346.009 47.8737C346.487 47.3952 347.26 47.3952 347.739 47.8737L350.85 50.9853L357.939 43.8971C358.417 43.4186 359.19 43.4186 359.669 43.8971C360.147 44.3755 360.147 45.1487 359.669 45.6272V45.6272Z" fill="#FAFAFA"/>
</g>
<path d="M94.5691 37.2883C94.8743 36.983 94.8743 36.4882 94.5691 36.1829L89.5949 31.2088C89.2897 30.9035 88.7948 30.9035 88.4896 31.2088C88.1843 31.514 88.1843 32.0089 88.4896 32.3141L92.911 36.7356L88.4896 41.157C88.1843 41.4623 88.1843 41.9572 88.4896 42.2624C88.7948 42.5676 89.2897 42.5676 89.5949 42.2624L94.5691 37.2883ZM66.7717 37.5172H94.0164V35.954H66.7717V37.5172Z" fill="#848484"/>
<path d="M187.469 37.2883C187.774 36.983 187.774 36.4882 187.469 36.1829L182.495 31.2088C182.19 30.9035 181.695 30.9035 181.389 31.2088C181.084 31.514 181.084 32.0089 181.389 32.3141L185.811 36.7356L181.389 41.157C181.084 41.4623 181.084 41.9572 181.389 42.2624C181.695 42.5676 182.19 42.5676 182.495 42.2624L187.469 37.2883ZM159.672 37.5172H186.916V35.954H159.672V37.5172Z" fill="#848484"/>
<path d="M291.646 37.2883C291.951 36.983 291.951 36.4882 291.646 36.1829L286.672 31.2088C286.367 30.9035 285.872 30.9035 285.567 31.2088C285.261 31.514 285.261 32.0089 285.567 32.3141L289.988 36.7356L285.567 41.157C285.261 41.4623 285.261 41.9572 285.567 42.2624C285.872 42.5676 286.367 42.5676 286.672 42.2624L291.646 37.2883ZM263.849 37.5172H291.094V35.954H263.849V37.5172Z" fill="#848484"/>
<defs>
<clipPath id="clip0">
<rect width="46.3383" height="46.3383" fill="white" transform="translate(107.639 10.8308)"/>
</clipPath>
<clipPath id="clip1">
<rect width="60.1839" height="60.1839" fill="white"/>
</clipPath>
<clipPath id="clip2">
<rect width="57.1691" height="57.1691" fill="white" transform="translate(195.626 10.8308)"/>
</clipPath>
<clipPath id="clip3">
<rect width="36.624" height="36.624" fill="white" transform="translate(220.972)"/>
</clipPath>
<clipPath id="clip4">
<rect width="57.1691" height="57.1691" fill="white" transform="translate(305.051 6.25293)"/>
</clipPath>
<clipPath id="clip5">
<rect width="29.3662" height="29.3662" fill="white" transform="translate(337.543 34.0558)"/>
</clipPath>
</defs>
</svg>
