<svg width="328" height="89" viewBox="0 0 328 89" fill="none" xmlns="http://www.w3.org/2000/svg">
<g clip-path="url(#clip0)">
<path d="M114.214 33H103.357C102.608 33 102 33.6076 102 34.3572V45.2143C102 45.9638 102.608 46.5714 103.357 46.5714H114.214C114.964 46.5714 115.571 45.9638 115.571 45.2143V34.3572C115.571 33.6076 114.964 33 114.214 33ZM112.857 43.8571H104.714V35.7143H112.857V43.8571Z" fill="black"/>
<path d="M108.786 37.0714C108.036 37.0714 107.428 37.679 107.428 38.4286V41.1428C107.428 41.8924 108.036 42.5 108.786 42.5C109.535 42.5 110.143 41.8924 110.143 41.1428V38.4286C110.143 37.679 109.535 37.0714 108.786 37.0714Z" fill="black"/>
<path d="M114.214 57.4286H103.357C102.608 57.4286 102 58.0362 102 58.7858V69.6429C102 70.3924 102.608 71 103.357 71H114.214C114.964 71 115.571 70.3924 115.571 69.6429V58.7858C115.571 58.0362 114.964 57.4286 114.214 57.4286ZM112.857 68.2857H104.714V60.1428H112.857V68.2857Z" fill="black"/>
<path d="M108.786 61.5C108.036 61.5 107.428 62.1076 107.428 62.8572V65.5714C107.428 66.321 108.036 66.9286 108.786 66.9286C109.535 66.9286 110.143 66.321 110.143 65.5714V62.8572C110.143 62.1076 109.535 61.5 108.786 61.5Z" fill="black"/>
<path d="M138.643 57.4286H127.786C127.036 57.4286 126.428 58.0362 126.428 58.7858V69.6429C126.428 70.3924 127.036 71 127.786 71H138.643C139.392 71 140 70.3924 140 69.6429V58.7858C140 58.0362 139.392 57.4286 138.643 57.4286ZM137.286 68.2857H129.143V60.1428H137.286V68.2857V68.2857Z" fill="black"/>
<path d="M133.214 61.5C132.465 61.5 131.857 62.1076 131.857 62.8572V65.5714C131.857 66.321 132.465 66.9286 133.214 66.9286C133.964 66.9286 134.572 66.321 134.572 65.5714V62.8572C134.572 62.1076 133.964 61.5 133.214 61.5Z" fill="black"/>
<path d="M138.643 33H131.857C131.108 33 130.5 33.6076 130.5 34.3572C130.5 35.1067 131.108 35.7143 131.857 35.7143H137.286V41.1428C137.286 41.8924 137.893 42.5 138.643 42.5C139.392 42.5 140 41.8924 140 41.1428V34.3572C140 33.6076 139.392 33 138.643 33Z" fill="black"/>
<path d="M118.286 62.8571C117.536 62.8571 116.929 63.4647 116.929 64.2142V69.6427C116.929 70.3923 117.536 70.9999 118.286 70.9999C119.035 70.9999 119.643 70.3923 119.643 69.6427V64.2141C119.643 63.4647 119.035 62.8571 118.286 62.8571Z" fill="black"/>
<path d="M125.071 46.5714H118.286C117.536 46.5714 116.929 47.179 116.929 47.9286V53.3571H112.857C112.108 53.3571 111.5 53.9647 111.5 54.7143C111.5 55.4638 112.108 56.0714 112.857 56.0714H118.286C119.035 56.0714 119.643 55.4638 119.643 54.7143V49.2857H125.072C125.821 49.2857 126.429 48.6781 126.429 47.9285C126.429 47.179 125.821 46.5714 125.071 46.5714Z" fill="black"/>
<path d="M114.214 49.2856H108.786C108.036 49.2856 107.428 49.8933 107.428 50.6428C107.428 51.3924 108.036 52 108.786 52H114.214C114.964 52 115.571 51.3924 115.571 50.6428C115.571 49.8933 114.964 49.2856 114.214 49.2856Z" fill="black"/>
<path d="M125.071 42.5H119.643V38.4286C119.643 37.679 119.035 37.0714 118.286 37.0714C117.536 37.0714 116.928 37.679 116.928 38.4286V43.8572C116.928 44.6067 117.536 45.2143 118.286 45.2143H125.071C125.821 45.2143 126.428 44.6067 126.428 43.8572C126.429 43.1076 125.821 42.5 125.071 42.5Z" fill="black"/>
<path d="M134.572 38.4286H129.143V34.3572C129.143 33.6076 128.535 33 127.786 33H118.286C117.536 33 116.929 33.6076 116.929 34.3572C116.929 35.1067 117.536 35.7143 118.286 35.7143H126.429V39.7858C126.429 40.5353 127.036 41.1429 127.786 41.1429H134.572C135.321 41.1429 135.929 40.5353 135.929 39.7858C135.929 39.0362 135.321 38.4286 134.572 38.4286Z" fill="black"/>
<path d="M129.143 42.5C128.393 42.5 127.786 43.1076 127.786 43.8572V49.2857C127.786 50.0352 128.393 50.6428 129.143 50.6428C129.892 50.6428 130.5 50.0352 130.5 49.2857V43.8571C130.5 43.1076 129.892 42.5 129.143 42.5Z" fill="black"/>
<path d="M138.643 43.8572H133.214C132.465 43.8572 131.857 44.4648 131.857 45.2143C131.857 45.9639 132.465 46.5715 133.214 46.5715H138.643C139.392 46.5715 140 45.9639 140 45.2143C140 44.4648 139.392 43.8572 138.643 43.8572Z" fill="black"/>
<path d="M138.643 47.9286H133.214C132.465 47.9286 131.857 48.5362 131.857 49.2858C131.857 50.0353 132.465 50.6429 133.214 50.6429H137.286V54.7144C137.286 55.4639 137.893 56.0715 138.643 56.0715C139.392 56.0715 140 55.4639 140 54.7144V49.2858C140 48.5362 139.392 47.9286 138.643 47.9286Z" fill="black"/>
<path d="M134.571 51.9999H127.786C127.036 51.9999 126.428 52.6075 126.428 53.357C126.428 54.1066 127.036 54.7142 127.786 54.7142H134.571C135.321 54.7142 135.928 54.1066 135.928 53.357C135.928 52.6075 135.321 51.9999 134.571 51.9999Z" fill="black"/>
<path d="M123.714 58.7856H118.286C117.536 58.7856 116.929 59.3933 116.929 60.1428C116.929 60.8924 117.536 61.4999 118.286 61.4999H122.357V69.6427C122.357 70.3923 122.965 70.9999 123.714 70.9999C124.464 70.9999 125.072 70.3923 125.072 69.6427V60.1427C125.072 59.3933 124.464 58.7856 123.714 58.7856Z" fill="black"/>
<path d="M123.714 54.7144H122.357C121.607 54.7144 121 55.322 121 56.0715C121 56.8211 121.607 57.4286 122.357 57.4286H123.714C124.464 57.4286 125.071 56.821 125.071 56.0714C125.071 55.3219 124.464 54.7144 123.714 54.7144Z" fill="black"/>
<path d="M123.714 50.6428H122.357C121.607 50.6428 121 51.2504 121 52C121 52.7495 121.607 53.3571 122.357 53.3571H123.714C124.464 53.3571 125.071 52.7495 125.071 51.9999C125.071 51.2504 124.464 50.6428 123.714 50.6428Z" fill="black"/>
<path d="M107.429 53.3572H103.357C102.608 53.3572 102 53.9648 102 54.7143C102 55.4639 102.608 56.0715 103.357 56.0715H107.429C108.178 56.0715 108.786 55.4639 108.786 54.7143C108.786 53.9648 108.178 53.3572 107.429 53.3572Z" fill="black"/>
<path d="M122.357 37.0714C121.607 37.0714 121 37.679 121 38.4286V39.7857C121 40.5353 121.607 41.1429 122.357 41.1429C123.106 41.1429 123.714 40.5353 123.714 39.7857V38.4286C123.714 37.679 123.106 37.0714 122.357 37.0714Z" fill="black"/>
<path d="M104.714 49.2856H103.357C102.608 49.2856 102 49.8933 102 50.6428C102 51.3924 102.608 52 103.357 52H104.714C105.464 52 106.072 51.3924 106.072 50.6428C106.072 49.8933 105.464 49.2856 104.714 49.2856Z" fill="black"/>
</g>
<path d="M200.825 48.6638L199.715 46.8006L212.126 39.3438L213.236 41.2068L200.825 48.6638Z" fill="#0095FF"/>
<path d="M212.012 60.0206L200.053 53.9091L201.031 51.974L212.99 58.0855L212.012 60.0206Z" fill="#0095FF"/>
<path d="M217.34 31C213.763 31 210.836 33.9267 210.836 37.5039C210.836 41.081 213.763 44.0078 217.34 44.0078C220.917 44.0078 223.844 41.081 223.844 37.5039C223.844 33.9267 220.917 31 217.34 31Z" fill="#00ABE9"/>
<path d="M217.34 54.9922C213.763 54.9922 210.836 57.9189 210.836 61.4961C210.836 65.0732 213.763 68 217.34 68C220.917 68 223.844 65.0732 223.844 61.4961C223.844 57.9189 220.917 54.9922 217.34 54.9922Z" fill="#00ABE9"/>
<path d="M195.66 44.0801C192.083 44.0801 189.156 47.0068 189.156 50.584C189.156 54.1611 192.083 57.0879 195.66 57.0879C199.237 57.0879 202.164 54.1611 202.164 50.584C202.164 47.0068 199.237 44.0801 195.66 44.0801Z" fill="#00ABE9"/>
<path d="M223.844 61.4961C223.844 65.0732 220.917 68 217.34 68V54.9922C220.917 54.9922 223.844 57.9189 223.844 61.4961Z" fill="#0095FF"/>
<path d="M217.34 44.0078V31C220.917 31 223.844 33.9267 223.844 37.5039C223.844 41.081 220.917 44.0078 217.34 44.0078Z" fill="#0095FF"/>
<path d="M202.164 50.584C202.164 54.1611 199.237 57.0879 195.66 57.0879V44.0801C199.237 44.0801 202.164 47.0068 202.164 50.584Z" fill="#0095FF"/>
<path d="M263.635 56.5371L258.421 54.5819C257.43 54.2103 256.774 53.2629 256.774 52.2043V50.1554H249.157V52.2045C249.157 53.2629 248.5 54.2103 247.509 54.5819L242.295 56.5371C240.313 57.2804 239 59.1752 239 61.292V70.4684C239 71.8707 240.137 73.0075 241.539 73.0075H266.93V61.292C266.93 59.1752 265.617 57.2804 263.635 56.5371Z" fill="#E6AF78"/>
<path d="M252.965 53.9641C254.391 53.9641 255.75 53.69 257.01 53.2109C256.872 52.8961 256.774 52.5626 256.774 52.2043V50.1554H249.156V52.2045C249.156 52.5626 249.058 52.8961 248.92 53.2108C250.18 53.69 251.539 53.9641 252.965 53.9641Z" fill="#D29B6E"/>
<path d="M241.539 73.0077H266.93V61.2922C266.93 59.1754 265.617 57.2806 263.635 56.5373L258.621 54.6569L254.761 58.5167C253.769 59.5082 252.161 59.5082 251.17 58.5167L247.31 54.6569L242.295 56.5373C240.313 57.2804 239 59.1752 239 61.2921V70.4685C239 71.8709 240.137 73.0077 241.539 73.0077Z" fill="#DBD9DC"/>
<path d="M253.014 51.425H252.916C248.035 51.425 244.078 47.4681 244.078 42.587V38.6802C244.078 33.7991 248.035 29.8423 252.916 29.8423H253.014C257.895 29.8423 261.852 33.7991 261.852 38.6802V42.5868C261.852 47.4679 257.895 51.425 253.014 51.425Z" fill="#F0C087"/>
<path d="M249.157 42.538V38.7292C249.157 34.7041 251.835 31.3082 255.505 30.2151C254.7 29.9754 253.848 29.8423 252.966 29.8423C248.058 29.8423 244.079 33.821 244.079 38.7292V42.538C244.079 47.446 248.058 51.425 252.966 51.425C253.849 51.425 254.7 51.2918 255.505 51.0521C251.834 49.9589 249.157 46.563 249.157 42.538Z" fill="#E6AF78"/>
<path d="M242.963 61.7354L239.802 58.5743C239.295 59.3708 239 60.3043 239 61.292V70.4684C239 71.8706 240.137 73.0075 241.539 73.0075H244.078V64.4285C244.078 63.4184 243.677 62.4497 242.963 61.7354Z" fill="#EDEBED"/>
<path d="M251.696 58.9089V73.0076H254.235V58.9089C253.45 59.3645 252.48 59.3645 251.696 58.9089Z" fill="#EDEBED"/>
<path d="M252.965 34.9204C255.77 34.9204 258.043 32.6471 258.043 29.8429C258.043 27.0387 255.77 24.7654 252.965 24.7654C250.161 24.7654 247.888 27.0387 247.888 29.8429C247.888 32.6471 250.161 34.9204 252.965 34.9204Z" fill="#6E4B53"/>
<path d="M244.078 38.7292V41.5783C245.485 40.9122 247.207 39.8619 248.525 38.299C248.91 37.8424 249.569 37.7482 250.089 38.0407C251.763 38.981 255.688 40.7717 261.852 41.1769V38.7292C261.852 33.821 257.874 29.8423 252.965 29.8423C248.057 29.8423 244.078 33.821 244.078 38.7292Z" fill="#5C414B"/>
<path d="M248.114 31.2888C245.686 32.8752 244.078 35.6124 244.078 38.729V41.5781C245.484 40.9121 247.207 39.8617 248.525 38.2988C248.727 38.0593 249.004 37.9258 249.298 37.8892C248.357 36.1021 247.623 33.7713 248.114 31.2888Z" fill="#503441"/>
<path d="M325.211 53.3735L318.828 50.4186C317.981 50.0261 317.434 49.1501 317.434 48.1835V43.6586H308.043V48.1835C308.043 49.15 307.496 50.0259 306.648 50.4184L300.266 53.3735C298.57 54.1585 297.477 55.9103 297.477 57.8433V73.0077H325.652C326.948 73.0077 328 71.9128 328 70.562V57.8435C328 55.9103 326.907 54.1585 325.211 53.3735Z" fill="#FAD7A5"/>
<path d="M325.211 53.3731L318.872 50.4384L314.399 54.9117C313.482 55.8286 311.995 55.8286 311.078 54.9117L306.605 50.4382L300.266 53.3731C298.57 54.1583 297.477 55.91 297.477 57.8431V73.0076L325.652 73.0074C326.949 73.0074 328 71.9124 328 70.5616V57.8431C328 55.91 326.907 54.1583 325.211 53.3731Z" fill="#DBD9DC"/>
<path d="M308.043 43.6586V48.1835C308.043 48.6314 307.915 49.054 307.704 49.4239C309.202 50.2388 310.917 50.7023 312.738 50.7023C314.56 50.7023 316.275 50.239 317.772 49.4241C317.562 49.0542 317.434 48.6314 317.434 48.1835V43.6586H308.043Z" fill="#F0C891"/>
<path d="M312.739 48.3544C308.2 48.3544 304.521 44.6751 304.521 40.1366V33.0928H320.957V40.1366C320.957 44.6751 317.278 48.3544 312.739 48.3544Z" fill="#FFE1B4"/>
<path d="M309.217 40.1366V33.0928H304.521V40.1366C304.521 44.6751 308.2 48.3544 312.739 48.3544C313.555 48.3544 314.343 48.2313 315.087 48.0095C311.693 46.9988 309.217 43.8586 309.217 40.1366Z" fill="#FAD7A5"/>
<path d="M313.913 27.2231H311.565C307.026 27.2231 303.347 30.9024 303.347 35.4409V37.3189C303.347 38.1889 304.27 38.7796 305.04 38.3737C306.231 37.7455 307.628 36.5735 308.566 35.3093C308.945 34.7988 309.675 34.723 310.184 35.1033C313.909 37.8832 319.098 37.2442 321.195 36.8298C321.742 36.7218 322.131 36.2372 322.131 35.6801V35.4407C322.131 30.9022 318.451 27.2231 313.913 27.2231Z" fill="#D59F63"/>
<path d="M305.04 38.3736C306.231 37.7453 307.628 36.5734 308.567 35.3091C308.71 35.1157 308.911 35.0053 309.124 34.9378C307.464 32.6275 307.351 30.0521 307.557 28.2701C305.047 29.6764 303.347 32.3586 303.347 35.4407V37.3188C303.347 38.1886 304.27 38.7793 305.04 38.3736Z" fill="#CD915A"/>
<path d="M322.13 62.7268C322.13 61.7927 322.501 60.8969 323.161 60.2364L327.577 55.8208C327.849 56.4445 327.999 57.1311 327.999 57.8433V70.5618C327.999 71.9126 326.948 73.0075 325.652 73.0075H322.13V62.7268Z" fill="#EDEBED"/>
<path d="M311.564 55.2749V73.0078H313.912V55.2749C313.186 55.6963 312.29 55.6963 311.564 55.2749Z" fill="#EDEBED"/>
<path d="M298.39 48.5572L290.442 44.8775C289.386 44.3886 288.706 43.2979 288.706 42.0943V36.4595L277.011 36.4596V42.0945C277.011 43.298 276.33 44.3886 275.274 44.8775L267.326 48.5572C265.214 49.5348 263.853 51.7164 263.853 54.1235V69.9619C263.853 71.644 265.162 73.0076 266.777 73.0076H298.939C300.554 73.0076 301.863 71.6439 301.863 69.9619V54.1237C301.863 51.7166 300.502 49.535 298.39 48.5572Z" fill="#B48764"/>
<path d="M266.777 73.0077L298.939 73.0075C300.554 73.0075 301.863 71.6438 301.863 69.9619V54.1237C301.863 51.7164 300.502 49.535 298.39 48.5572L290.496 44.9026L284.926 50.4731C283.784 51.615 281.933 51.615 280.791 50.4731L275.22 44.9025L267.326 48.5572C265.214 49.5348 263.853 51.7162 263.853 54.1235V69.9619C263.853 71.644 265.162 73.0077 266.777 73.0077Z" fill="#5D5360"/>
<path d="M277.01 36.4595V42.0943C277.01 42.6521 276.851 43.1784 276.589 43.6391C278.453 44.6539 280.589 45.231 282.858 45.231C285.126 45.231 287.261 44.6541 289.126 43.6393C288.864 43.1786 288.705 42.6521 288.705 42.0943V36.4595H277.01Z" fill="#966D50"/>
<path d="M282.858 42.3072C277.207 42.3072 272.625 37.7255 272.625 32.0738V23.3022H293.092V32.0738C293.092 37.7255 288.51 42.3072 282.858 42.3072Z" fill="#C39772"/>
<path d="M278.473 32.0735V23.302H272.625V32.0735C272.625 37.7254 277.207 42.307 282.858 42.307C283.875 42.307 284.855 42.1537 285.782 41.8776C281.556 40.6189 278.473 36.7087 278.473 32.0735Z" fill="#B48764"/>
<path d="M284.319 15.9924H281.396C275.744 15.9924 271.162 20.5742 271.162 26.2259V28.5645C271.162 29.6478 272.312 30.3835 273.27 29.8782C274.753 29.0959 276.493 27.6365 277.662 26.0621C278.134 25.4263 279.041 25.332 279.676 25.8057C284.315 29.2673 290.777 28.4717 293.389 27.9558C294.069 27.8214 294.553 27.2179 294.553 26.5241V26.226C294.553 20.5742 289.971 15.9924 284.319 15.9924Z" fill="#5C414B"/>
<path d="M273.27 29.8782C274.753 29.096 276.492 27.6365 277.661 26.0621C277.84 25.8212 278.09 25.6837 278.355 25.5998C276.288 22.7227 276.147 19.5156 276.404 17.2965C273.278 19.0478 271.162 22.3878 271.162 26.2261V28.5647C271.162 29.648 272.311 30.3837 273.27 29.8782Z" fill="#503441"/>
<path d="M271.163 60.2049C271.163 59.0417 270.701 57.9262 269.878 57.1037L264.379 51.605C264.04 52.3816 263.853 53.2367 263.853 54.1234V69.9617C263.853 71.6439 265.162 73.0076 266.777 73.0076H271.163V60.2049Z" fill="#6F6571"/>
<path d="M294.553 60.2049C294.553 59.0417 295.015 57.9262 295.838 57.1037L301.336 51.605C301.675 52.3816 301.863 53.2367 301.863 54.1234V69.9617C301.863 71.6439 300.554 73.0076 298.939 73.0076H294.553V60.2049Z" fill="#6F6571"/>
<path d="M281.396 50.925V73.0077L284.32 73.0075V50.925C283.416 51.4497 282.3 51.4497 281.396 50.925Z" fill="#6F6571"/>
<path d="M93.7973 52.5527C94.1026 52.2474 94.1026 51.7526 93.7973 51.4473L88.8232 46.4732C88.518 46.168 88.0231 46.168 87.7179 46.4732C87.4126 46.7784 87.4126 47.2733 87.7179 47.5786L92.1393 52L87.7179 56.4214C87.4126 56.7267 87.4126 57.2216 87.7179 57.5268C88.0231 57.832 88.518 57.832 88.8232 57.5268L93.7973 52.5527ZM66 52.7816H93.2447V51.2184H66V52.7816Z" fill="#848484"/>
<path d="M175.797 52.5527C176.103 52.2474 176.103 51.7526 175.797 51.4473L170.823 46.4732C170.518 46.168 170.023 46.168 169.718 46.4732C169.413 46.7784 169.413 47.2733 169.718 47.5786L174.139 52L169.718 56.4214C169.413 56.7267 169.413 57.2216 169.718 57.5268C170.023 57.832 170.518 57.832 170.823 57.5268L175.797 52.5527ZM148 52.7816H175.245V51.2184H148V52.7816Z" fill="#848484"/>
<g clip-path="url(#clip1)">
<path d="M14.0554 70.1252L16.5085 73.9456C16.9305 74.6026 17.6578 75 18.4386 75H38.5609C39.3417 75 40.069 74.6026 40.491 73.9456L42.9441 70.1252L28.2324 69.2346L14.0554 70.1252Z" fill="#8C818F"/>
<path d="M15.6206 72.5627H41.379L42.9442 70.1252H14.0554L15.6206 72.5627Z" fill="#766D78"/>
<path d="M1.57129 67.8316V31.1759C1.57129 29.9091 2.59829 28.8821 3.86509 28.8821H53.1347C54.4015 28.8821 55.4285 29.9091 55.4285 31.1759V67.8316C55.4285 69.0984 54.4015 70.1254 53.1347 70.1254H3.86498C2.59818 70.1253 1.57129 69.0984 1.57129 67.8316V67.8316Z" fill="#8C818F"/>
<path d="M51.2405 66.5109H5.759C5.44227 66.5109 5.18555 66.2541 5.18555 65.9374V33.0699C5.18555 32.7532 5.44227 32.4965 5.759 32.4965H51.2405C51.5573 32.4965 51.814 32.7532 51.814 33.0699V65.9375C51.814 66.2541 51.5573 66.5109 51.2405 66.5109Z" fill="#77D1B3"/>
<path d="M51.2405 32.4965H48.3396V62.1528C48.3396 62.4696 48.0828 62.7263 47.7661 62.7263H5.18555V65.9375C5.18555 66.2543 5.44227 66.511 5.759 66.511H51.2405C51.5573 66.511 51.814 66.2543 51.814 65.9375V33.0699C51.814 32.7532 51.5573 32.4965 51.2405 32.4965V32.4965Z" fill="#67B59F"/>
<path d="M25.5085 32.4965H5.759C5.44227 32.4965 5.18555 32.7532 5.18555 33.0699V62.1135L25.5085 32.4965Z" fill="#80B6FC"/>
<path d="M51.814 51.996L34.7523 40.2884L40.0992 32.4963H25.5085L5.18555 62.1135V65.9542C5.18555 66.2616 5.43481 66.5109 5.74219 66.5109H16.7587L30.624 46.3045L51.8139 60.8448V51.996H51.814Z" fill="#DDEBFD"/>
<path d="M19.3557 62.7263H5.18555V65.9376C5.18555 66.2543 5.44227 66.5109 5.759 66.511H16.7588L19.3557 62.7263Z" fill="#BED9FD"/>
<path d="M51.8138 51.9962L48.3394 49.6121V58.4609L51.8138 60.845V51.9962Z" fill="#BED9FD"/>
<path d="M48.286 20.3011C45.239 17.233 40.2766 17.233 37.2296 20.3011C34.1917 23.3599 34.2825 28.3331 37.3309 31.3814L42.3801 36.4306C42.5887 36.6393 42.9269 36.6393 43.1357 36.4306L48.1848 31.3814C51.2331 28.3331 51.324 23.3599 48.286 20.3011V20.3011ZM44.6616 27.6944C43.6101 28.7458 41.9055 28.7458 40.8541 27.6944C39.8026 26.6429 39.8027 24.9382 40.8541 23.8867C41.9055 22.8353 43.6103 22.8353 44.6616 23.8867C45.713 24.9382 45.713 26.643 44.6616 27.6944Z" fill="#DF646E"/>
<path d="M48.286 20.301C46.4196 18.4218 43.8349 17.6957 41.4116 18.1187C42.9445 18.3862 44.413 19.1123 45.5937 20.301C48.6316 23.3599 48.5407 28.333 45.4924 31.3814L41.4116 35.4622L42.3801 36.4306C42.5887 36.6392 42.9269 36.6392 43.1357 36.4306L48.1848 31.3814C51.2331 28.333 51.3239 23.3599 48.286 20.301V20.301Z" fill="#DC4955"/>
<path d="M33.2018 61.4129C34.6822 61.1729 35.6877 59.7783 35.4477 58.298C35.2078 56.8176 33.8132 55.8121 32.3328 56.0521C30.8524 56.292 29.8469 57.6866 30.0869 59.167C30.3268 60.6474 31.7215 61.6529 33.2018 61.4129Z" fill="#EEC06B"/>
</g>
<defs>
<clipPath id="clip0">
<rect width="38" height="38" fill="white" transform="translate(102 33)"/>
</clipPath>
<clipPath id="clip1">
<rect width="57" height="57" fill="white" transform="translate(0 18)"/>
</clipPath>
</defs>
</svg>
