<svg width="126" height="39" viewBox="0 0 126 39" fill="none" xmlns="http://www.w3.org/2000/svg">
<path d="M8.34401 1.65805L8.34401 15H7.031L7.031 1.65805L0.412965 1.65805L0.412965 0.450923L14.962 0.450923V1.65805L8.34401 1.65805ZM20.2289 8.77376V15H18.9053V0.450923L26.1481 0.450923C27.2564 0.450923 28.2059 0.539163 28.9965 0.715644C29.7871 0.885066 30.4331 1.14626 30.9343 1.49922C31.4425 1.84512 31.8131 2.27926 32.0461 2.80165C32.279 3.32403 32.3955 3.93465 32.3955 4.63352C32.3955 5.72064 32.1096 6.59245 31.5378 7.24896C30.966 7.89841 30.0448 8.34314 28.7741 8.58316L33.7403 15H32.0779L27.387 8.7314C27.1893 8.74552 26.9881 8.75611 26.7834 8.76317C26.5787 8.77023 26.3669 8.77376 26.1481 8.77376H20.2289ZM31.0296 4.63352C31.0296 4.01231 30.9201 3.5111 30.7013 3.1299C30.4825 2.74164 30.126 2.44163 29.6318 2.22985C29.1377 2.01807 28.4882 1.87689 27.6835 1.8063C26.8858 1.72864 25.9046 1.68982 24.7398 1.68982H20.2289V7.53486H24.6974C25.8622 7.53486 26.847 7.5031 27.6517 7.43956C28.4565 7.36897 29.1094 7.23132 29.6107 7.0266C30.1119 6.81482 30.4719 6.52186 30.6907 6.14772C30.9166 5.76652 31.0296 5.26179 31.0296 4.63352ZM51.375 15L49.3737 11.1668L39.4943 11.1668L37.493 15H36.0423L43.6557 0.450923H45.2123L52.8256 15H51.375ZM44.4393 1.73217L40.1402 9.94912L48.7278 9.94912L44.4393 1.73217ZM71.4874 13.8458C70.9792 14.0576 70.4744 14.2517 69.9732 14.4282C69.4791 14.6047 68.9638 14.7565 68.4273 14.8835C67.8908 15.0106 67.326 15.1094 66.733 15.18C66.1401 15.2506 65.4941 15.2859 64.7953 15.2859C63.9341 15.2859 63.1046 15.2153 62.3069 15.0741C61.5163 14.9329 60.7786 14.7212 60.0938 14.4388C59.4091 14.1564 58.7879 13.807 58.2302 13.3905C57.6725 12.9669 57.1925 12.4763 56.7901 11.9186C56.3948 11.361 56.0877 10.7327 55.8689 10.0338C55.6571 9.33497 55.5512 8.56904 55.5512 7.73605C55.5512 6.90306 55.6571 6.13713 55.8689 5.43827C56.0877 4.73941 56.3948 4.11113 56.7901 3.55346C57.1925 2.99578 57.6725 2.50869 58.2302 2.09219C58.7879 1.66864 59.4091 1.31568 60.0938 1.03331C60.7786 0.75094 61.5163 0.539163 62.3069 0.397979C63.0975 0.256794 63.927 0.186202 64.7953 0.186202C65.4941 0.186202 66.1401 0.221498 66.733 0.29209C67.326 0.362682 67.8908 0.461512 68.4273 0.588578C68.9638 0.715644 69.4791 0.867417 69.9732 1.0439C70.4744 1.21332 70.9792 1.40392 71.4874 1.6157V3.20402C71.0851 2.94989 70.6544 2.70988 70.1956 2.48398C69.7367 2.25809 69.2391 2.06043 68.7026 1.89101C68.1731 1.72158 67.6049 1.58746 66.9978 1.48863C66.3907 1.3898 65.7412 1.34039 65.0494 1.34039C63.6517 1.34039 62.441 1.49216 61.4174 1.79571C60.3938 2.09925 59.5467 2.52987 58.8761 3.08755C58.2125 3.63817 57.7184 4.30879 57.3937 5.09943C57.076 5.883 56.9172 6.76188 56.9172 7.73605C56.9172 8.71022 57.076 9.5891 57.3937 10.3727C57.7184 11.1562 58.2125 11.8269 58.8761 12.3846C59.5467 12.9352 60.3938 13.3623 61.4174 13.6658C62.441 13.9623 63.6517 14.1105 65.0494 14.1105C65.7412 14.1105 66.3942 14.0611 67.0083 13.9623C67.6296 13.8635 68.2084 13.7293 68.7449 13.5599C69.2885 13.3905 69.7862 13.1964 70.2379 12.9775C70.6968 12.7516 71.1133 12.5152 71.4874 12.2681V13.8458ZM76.5002 15V0.450923L88.6244 0.450923V1.68982L77.9403 1.68982V6.69834H88.0844V7.92665H77.9403V13.7611H88.7833V15L76.5002 15ZM15.6821 27.5488C15.4068 27.4147 15.0432 27.2629 14.5914 27.0935C14.1396 26.9241 13.6278 26.7652 13.056 26.617C12.4843 26.4617 11.863 26.3346 11.1924 26.2358C10.5218 26.1299 9.83351 26.077 9.12759 26.077C8.56285 26.077 8.07929 26.0946 7.67691 26.1299C7.2816 26.1652 6.94628 26.2111 6.67097 26.2676C6.40272 26.324 6.18742 26.3911 6.02505 26.4687C5.86975 26.5393 5.74974 26.6135 5.66503 26.6911C5.58032 26.7688 5.52385 26.8464 5.49561 26.9241C5.47443 27.0017 5.46385 27.0723 5.46385 27.1358C5.46385 27.3476 5.56973 27.5347 5.78151 27.6971C5.99329 27.8524 6.28272 27.9935 6.6498 28.1206C7.01688 28.2406 7.44396 28.3571 7.93105 28.47C8.41813 28.5759 8.93346 28.6889 9.47702 28.8089C10.0276 28.9218 10.5924 29.0489 11.1712 29.1901C11.7572 29.3242 12.3219 29.483 12.8655 29.6666C13.4161 29.8501 13.9349 30.0654 14.422 30.3125C14.9091 30.5525 15.3362 30.8349 15.7033 31.1596C16.0703 31.4843 16.3598 31.8585 16.5715 32.282C16.7833 32.7056 16.8892 33.1891 16.8892 33.7327C16.8892 34.4316 16.7657 35.0316 16.5186 35.5328C16.2715 36.034 15.9397 36.4576 15.5233 36.8035C15.1138 37.1494 14.6373 37.4282 14.0938 37.64C13.5502 37.8447 12.9784 38.0035 12.3784 38.1165C11.7854 38.2294 11.1818 38.3035 10.5677 38.3388C9.96058 38.3741 9.38172 38.3918 8.8311 38.3918C7.39102 38.3918 6.05682 38.2718 4.82851 38.0318C3.60727 37.7988 2.52721 37.5059 1.58833 37.1529L1.58833 33.6798C2.55544 34.2163 3.65668 34.6363 4.89205 34.9398C6.13447 35.2434 7.46161 35.3951 8.87345 35.3951C9.70644 35.3951 10.3841 35.3528 10.9065 35.2681C11.436 35.1763 11.8489 35.0634 12.1454 34.9292C12.4419 34.788 12.6431 34.6363 12.749 34.4739C12.8549 34.3116 12.9078 34.1562 12.9078 34.008C12.9078 33.775 12.8019 33.5739 12.5901 33.4044C12.3784 33.228 12.0889 33.0762 11.7219 32.9491C11.3548 32.815 10.9277 32.695 10.4406 32.5891C9.95352 32.4762 9.43466 32.3667 8.88404 32.2608C8.34048 32.1479 7.77927 32.0279 7.20042 31.9008C6.62156 31.7738 6.05682 31.6255 5.5062 31.4561C4.96264 31.2796 4.44732 31.0784 3.96023 30.8525C3.47314 30.6196 3.04606 30.3478 2.67898 30.0372C2.3119 29.7195 2.02247 29.356 1.81069 28.9465C1.59892 28.53 1.49303 28.05 1.49303 27.5065C1.49303 26.8641 1.60598 26.3099 1.83187 25.844C2.05777 25.3781 2.36131 24.9828 2.74251 24.6581C3.13077 24.3263 3.5755 24.058 4.07671 23.8533C4.58497 23.6486 5.11794 23.4897 5.67562 23.3768C6.2333 23.2639 6.79804 23.1862 7.36984 23.1438C7.94164 23.1015 8.4852 23.0803 9.00052 23.0803C9.56526 23.0803 10.1441 23.1086 10.7371 23.165C11.3371 23.2215 11.9266 23.3027 12.5054 23.4086C13.0843 23.5074 13.642 23.6239 14.1785 23.758C14.722 23.8921 15.2232 24.0333 15.6821 24.1816V27.5488ZM33.6734 38V31.9326H23.6775V38H19.749L19.749 23.4509H23.6775L23.6775 28.7453L33.6734 28.7453V23.4509H37.6018V38H33.6734ZM52.9777 35.2469H44.8666L43.5007 38H39.1169L46.7303 23.4509H51.1141L58.7274 38L54.3437 38L52.9777 35.2469ZM46.275 32.4091H51.5906L48.9433 27.0511L46.275 32.4091ZM64.171 38H60.2425V23.4509H70.0901C71.149 23.4509 72.0455 23.5603 72.7797 23.7792C73.5209 23.998 74.1209 24.3086 74.5798 24.711C75.0457 25.1134 75.381 25.6005 75.5857 26.1723C75.7975 26.737 75.9034 27.3688 75.9034 28.0677C75.9034 28.6818 75.8152 29.2183 75.6387 29.6772C75.4693 30.136 75.2363 30.5313 74.9398 30.8631C74.6504 31.1878 74.3115 31.4632 73.9233 31.689C73.535 31.9149 73.1256 32.102 72.695 32.2503L77.46 38H72.8644L68.4594 32.642H64.171V38ZM71.9326 28.0465C71.9326 27.7641 71.8938 27.5241 71.8161 27.3264C71.7455 27.1288 71.6185 26.9699 71.4349 26.8499C71.2514 26.7229 71.0043 26.6311 70.6937 26.5746C70.3901 26.5182 70.0089 26.4899 69.5501 26.4899H64.171V29.603H69.5501C70.0089 29.603 70.3901 29.5748 70.6937 29.5183C71.0043 29.4619 71.2514 29.3736 71.4349 29.2536C71.6185 29.1265 71.7455 28.9642 71.8161 28.7665C71.8938 28.5689 71.9326 28.3289 71.9326 28.0465ZM79.4092 38V23.4509H83.3376V38H79.4092ZM100.778 38L90.9624 28.0041V38H87.034V23.4509H91.3013L101.128 33.4892V23.4509H105.035V38H100.778ZM118.092 23.0803C119.518 23.0803 120.841 23.2038 122.063 23.4509C123.291 23.6909 124.417 24.0015 125.441 24.3827V27.9406C125.038 27.7147 124.583 27.4959 124.075 27.2841C123.573 27.0723 123.026 26.8852 122.433 26.7229C121.84 26.5605 121.205 26.4299 120.527 26.3311C119.85 26.2323 119.137 26.1828 118.388 26.1828C117.457 26.1828 116.645 26.2499 115.953 26.384C115.261 26.5182 114.668 26.6982 114.174 26.9241C113.68 27.15 113.274 27.4147 112.956 27.7182C112.639 28.0147 112.388 28.3324 112.205 28.6712C112.021 29.0101 111.894 29.356 111.823 29.7089C111.753 30.0619 111.717 30.4043 111.717 30.7361C111.717 31.0255 111.746 31.3396 111.802 31.6785C111.866 32.0173 111.979 32.3561 112.141 32.695C112.31 33.0338 112.543 33.3586 112.84 33.6692C113.136 33.9798 113.521 34.2551 113.994 34.4951C114.474 34.7351 115.049 34.9292 115.72 35.0775C116.391 35.2187 117.188 35.2893 118.113 35.2893C118.579 35.2893 118.985 35.2751 119.331 35.2469C119.677 35.2187 119.991 35.1798 120.273 35.1304C120.563 35.081 120.831 35.021 121.078 34.9504C121.332 34.8798 121.593 34.8057 121.862 34.728V32.9703H117.457V29.7831H125.79V37.2164C125.268 37.3929 124.682 37.5553 124.032 37.7035C123.39 37.8447 122.723 37.9647 122.031 38.0635C121.346 38.1694 120.658 38.2506 119.966 38.3071C119.274 38.3636 118.621 38.3918 118.007 38.3918C117.054 38.3918 116.14 38.3283 115.265 38.2012C114.389 38.0741 113.57 37.88 112.808 37.6188C112.053 37.3506 111.361 37.0117 110.733 36.6023C110.111 36.1928 109.578 35.7057 109.134 35.141C108.696 34.5763 108.354 33.9304 108.107 33.2033C107.867 32.4691 107.747 31.6467 107.747 30.7361C107.747 29.8325 107.874 29.0136 108.128 28.2794C108.382 27.5453 108.735 26.8958 109.187 26.3311C109.646 25.7664 110.193 25.2793 110.828 24.8698C111.47 24.4604 112.173 24.1251 112.935 23.8639C113.705 23.5956 114.523 23.398 115.392 23.2709C116.267 23.1438 117.167 23.0803 118.092 23.0803Z" fill="white"/>
</svg>
