<svg width="1298" height="258" viewBox="0 0 1298 258" fill="none" xmlns="http://www.w3.org/2000/svg">
<path d="M421 227.9C421 235.681 418.833 242.438 414.5 248.171C410.167 253.905 404.5 256.567 397.5 256.157H59.4999C55.4999 256.157 52.6665 253.905 50.9999 249.4C49.3332 244.895 49.8332 240.8 52.4999 237.114L129.5 130.229C130.5 128.59 130.5 127.157 129.5 125.929L52.4999 19.0429C49.8332 15.3571 49.3332 11.2619 50.9999 6.75714C52.6665 2.25238 55.4999 0 59.4999 0L397.5 0C404.167 0 409.833 2.86667 414.5 8.6C419.167 14.3333 421.333 20.8857 421 28.2571V227.9Z" fill="white"/>
<rect x="366" width="932" height="256" fill="white"/>
</svg>
