<svg width="29" height="15" viewBox="0 0 29 15" fill="none" xmlns="http://www.w3.org/2000/svg">
<path d="M7.27804 2.36253V14H6.13276V2.36253H0.360207V1.30962H13.0506V2.36253H7.27804ZM27.0894 4.88398C26.8493 4.76699 26.5322 4.63461 26.1381 4.48683C25.7441 4.33905 25.2976 4.20051 24.7989 4.07121C24.3001 3.93574 23.7583 3.82491 23.1733 3.73871C22.5884 3.64635 21.988 3.60017 21.3723 3.60017C20.8797 3.60017 20.4579 3.61556 20.107 3.64635C19.7621 3.67713 19.4697 3.71716 19.2295 3.76642C18.9956 3.81567 18.8078 3.87417 18.6661 3.9419C18.5307 4.00348 18.426 4.06813 18.3521 4.13586C18.2782 4.20359 18.229 4.27132 18.2043 4.33905C18.1859 4.40678 18.1766 4.46836 18.1766 4.52377C18.1766 4.7085 18.269 4.87167 18.4537 5.01329C18.6384 5.14875 18.8909 5.2719 19.2111 5.38273C19.5312 5.48741 19.9038 5.589 20.3286 5.68752C20.7535 5.77988 21.203 5.8784 21.6771 5.98308C22.1574 6.08159 22.65 6.19243 23.1549 6.31558C23.6659 6.43257 24.1585 6.57111 24.6326 6.7312C25.1129 6.89129 25.5655 7.07909 25.9903 7.2946C26.4152 7.50395 26.7877 7.75025 27.1079 8.03349C27.4281 8.31673 27.6806 8.64307 27.8653 9.01251C28.05 9.38196 28.1424 9.80374 28.1424 10.2779C28.1424 10.8874 28.0346 11.4108 27.8191 11.848C27.6036 12.2852 27.3142 12.6546 26.9509 12.9563C26.5938 13.258 26.1781 13.5013 25.704 13.686C25.2299 13.8645 24.7312 14.0031 24.2078 14.1016C23.6906 14.2001 23.1641 14.2648 22.6284 14.2956C22.0989 14.3263 21.594 14.3417 21.1137 14.3417C19.8576 14.3417 18.6938 14.2371 17.6225 14.0277C16.5572 13.8245 15.6151 13.569 14.7962 13.2611V10.2317C15.6398 10.6996 16.6003 11.066 17.6779 11.3308C18.7616 11.5955 19.9192 11.7279 21.1506 11.7279C21.8772 11.7279 22.4683 11.691 22.924 11.6171C23.3858 11.537 23.746 11.4385 24.0046 11.3215C24.2632 11.1984 24.4387 11.066 24.531 10.9244C24.6234 10.7828 24.6696 10.6473 24.6696 10.518C24.6696 10.3148 24.5772 10.1393 24.3925 9.99154C24.2078 9.8376 23.9553 9.70522 23.6351 9.59439C23.315 9.4774 22.9424 9.37272 22.5176 9.28036C22.0927 9.18184 21.6402 9.0864 21.1599 8.99404C20.6858 8.89552 20.1962 8.79085 19.6913 8.68001C19.1864 8.56918 18.6938 8.43988 18.2136 8.2921C17.7394 8.13816 17.29 7.96268 16.8651 7.76564C16.4402 7.56245 16.0677 7.32539 15.7475 7.05446C15.4273 6.77738 15.1749 6.46027 14.9902 6.10315C14.8054 5.73986 14.7131 5.32116 14.7131 4.84704C14.7131 4.28672 14.8116 3.80336 15.0086 3.39697C15.2057 2.99058 15.4704 2.64577 15.8029 2.36253C16.1416 2.07313 16.5295 1.83915 16.9667 1.66059C17.41 1.48202 17.8749 1.34348 18.3613 1.24496C18.8478 1.14645 19.3404 1.07871 19.8391 1.04177C20.3379 1.00483 20.812 0.986353 21.2615 0.986353C21.7541 0.986353 22.259 1.01098 22.7762 1.06024C23.2996 1.1095 23.8137 1.18031 24.3186 1.27267C24.8235 1.35888 25.31 1.46047 25.7779 1.57746C26.252 1.69445 26.6892 1.8176 27.0894 1.94691V4.88398Z" fill="white"/>
</svg>
