<svg width="175" height="56" viewBox="0 0 175 56" fill="none" xmlns="http://www.w3.org/2000/svg">
<path d="M8.34401 3.65805L8.34401 17H7.031L7.031 3.65805L0.412965 3.65805L0.412965 2.45092L14.962 2.45092V3.65805L8.34401 3.65805ZM20.2289 10.7738V17H18.9053V2.45092L26.1481 2.45092C27.2564 2.45092 28.2059 2.53916 28.9965 2.71564C29.7871 2.88507 30.4331 3.14626 30.9343 3.49922C31.4425 3.84512 31.8131 4.27926 32.0461 4.80165C32.279 5.32403 32.3955 5.93465 32.3955 6.63352C32.3955 7.72064 32.1096 8.59245 31.5378 9.24896C30.966 9.89841 30.0448 10.3431 28.7741 10.5832L33.7403 17H32.0779L27.387 10.7314C27.1893 10.7455 26.9881 10.7561 26.7834 10.7632C26.5787 10.7702 26.3669 10.7738 26.1481 10.7738H20.2289ZM31.0296 6.63352C31.0296 6.01231 30.9201 5.5111 30.7013 5.1299C30.4825 4.74164 30.126 4.44163 29.6318 4.22985C29.1377 4.01807 28.4882 3.87689 27.6835 3.8063C26.8858 3.72864 25.9046 3.68982 24.7398 3.68982H20.2289V9.53486H24.6974C25.8622 9.53486 26.847 9.5031 27.6517 9.43956C28.4565 9.36897 29.1094 9.23132 29.6107 9.0266C30.1119 8.81482 30.4719 8.52186 30.6907 8.14772C30.9166 7.76652 31.0296 7.26179 31.0296 6.63352ZM51.375 17L49.3737 13.1668L39.4943 13.1668L37.493 17H36.0423L43.6557 2.45092H45.2123L52.8256 17H51.375ZM44.4393 3.73217L40.1402 11.9491L48.7278 11.9491L44.4393 3.73217ZM71.4874 15.8458C70.9792 16.0576 70.4744 16.2517 69.9732 16.4282C69.4791 16.6047 68.9638 16.7565 68.4273 16.8835C67.8908 17.0106 67.326 17.1094 66.733 17.18C66.1401 17.2506 65.4941 17.2859 64.7953 17.2859C63.9341 17.2859 63.1046 17.2153 62.3069 17.0741C61.5163 16.9329 60.7786 16.7212 60.0938 16.4388C59.4091 16.1564 58.7879 15.807 58.2302 15.3905C57.6725 14.9669 57.1925 14.4763 56.7901 13.9186C56.3948 13.361 56.0877 12.7327 55.8689 12.0338C55.6571 11.335 55.5512 10.569 55.5512 9.73605C55.5512 8.90306 55.6571 8.13713 55.8689 7.43827C56.0877 6.73941 56.3948 6.11113 56.7901 5.55346C57.1925 4.99578 57.6725 4.50869 58.2302 4.09219C58.7879 3.66864 59.4091 3.31568 60.0938 3.03331C60.7786 2.75094 61.5163 2.53916 62.3069 2.39798C63.0975 2.25679 63.927 2.1862 64.7953 2.1862C65.4941 2.1862 66.1401 2.2215 66.733 2.29209C67.326 2.36268 67.8908 2.46151 68.4273 2.58858C68.9638 2.71564 69.4791 2.86742 69.9732 3.0439C70.4744 3.21332 70.9792 3.40392 71.4874 3.6157V5.20402C71.0851 4.94989 70.6544 4.70988 70.1956 4.48398C69.7367 4.25809 69.2391 4.06043 68.7026 3.89101C68.1731 3.72158 67.6049 3.58746 66.9978 3.48863C66.3907 3.3898 65.7412 3.34039 65.0494 3.34039C63.6517 3.34039 62.441 3.49216 61.4174 3.79571C60.3938 4.09925 59.5467 4.52987 58.8761 5.08755C58.2125 5.63817 57.7184 6.30879 57.3937 7.09943C57.076 7.883 56.9172 8.76188 56.9172 9.73605C56.9172 10.7102 57.076 11.5891 57.3937 12.3727C57.7184 13.1562 58.2125 13.8269 58.8761 14.3846C59.5467 14.9352 60.3938 15.3623 61.4174 15.6658C62.441 15.9623 63.6517 16.1105 65.0494 16.1105C65.7412 16.1105 66.3942 16.0611 67.0083 15.9623C67.6296 15.8635 68.2084 15.7293 68.7449 15.5599C69.2885 15.3905 69.7862 15.1964 70.2379 14.9775C70.6968 14.7516 71.1133 14.5152 71.4874 14.2681V15.8458ZM76.5002 17V2.45092L88.6244 2.45092V3.68982L77.9403 3.68982V8.69834H88.0844V9.92665H77.9403V15.7611H88.7833V17L76.5002 17ZM15.6821 29.5488C15.4068 29.4147 15.0432 29.2629 14.5914 29.0935C14.1396 28.9241 13.6278 28.7652 13.056 28.617C12.4843 28.4617 11.863 28.3346 11.1924 28.2358C10.5218 28.1299 9.83351 28.077 9.12759 28.077C8.56285 28.077 8.07929 28.0946 7.67691 28.1299C7.2816 28.1652 6.94628 28.2111 6.67097 28.2676C6.40272 28.324 6.18742 28.3911 6.02505 28.4687C5.86975 28.5393 5.74974 28.6135 5.66503 28.6911C5.58032 28.7688 5.52385 28.8464 5.49561 28.9241C5.47443 29.0017 5.46385 29.0723 5.46385 29.1358C5.46385 29.3476 5.56973 29.5347 5.78151 29.6971C5.99329 29.8524 6.28272 29.9935 6.6498 30.1206C7.01688 30.2406 7.44396 30.3571 7.93105 30.47C8.41813 30.5759 8.93346 30.6889 9.47702 30.8089C10.0276 30.9218 10.5924 31.0489 11.1712 31.1901C11.7572 31.3242 12.3219 31.483 12.8655 31.6666C13.4161 31.8501 13.9349 32.0654 14.422 32.3125C14.9091 32.5525 15.3362 32.8349 15.7033 33.1596C16.0703 33.4843 16.3598 33.8585 16.5715 34.282C16.7833 34.7056 16.8892 35.1891 16.8892 35.7327C16.8892 36.4316 16.7657 37.0316 16.5186 37.5328C16.2715 38.034 15.9397 38.4576 15.5233 38.8035C15.1138 39.1494 14.6373 39.4282 14.0938 39.64C13.5502 39.8447 12.9784 40.0035 12.3784 40.1165C11.7854 40.2294 11.1818 40.3035 10.5677 40.3388C9.96058 40.3741 9.38172 40.3918 8.8311 40.3918C7.39102 40.3918 6.05682 40.2718 4.82851 40.0318C3.60727 39.7988 2.52721 39.5059 1.58833 39.1529L1.58833 35.6798C2.55544 36.2163 3.65668 36.6363 4.89205 36.9398C6.13447 37.2434 7.46161 37.3951 8.87345 37.3951C9.70644 37.3951 10.3841 37.3528 10.9065 37.2681C11.436 37.1763 11.8489 37.0634 12.1454 36.9292C12.4419 36.788 12.6431 36.6363 12.749 36.4739C12.8549 36.3116 12.9078 36.1562 12.9078 36.008C12.9078 35.775 12.8019 35.5739 12.5901 35.4044C12.3784 35.228 12.0889 35.0762 11.7219 34.9491C11.3548 34.815 10.9277 34.695 10.4406 34.5891C9.95352 34.4762 9.43466 34.3667 8.88404 34.2608C8.34048 34.1479 7.77927 34.0279 7.20042 33.9008C6.62156 33.7738 6.05682 33.6255 5.5062 33.4561C4.96264 33.2796 4.44732 33.0784 3.96023 32.8525C3.47314 32.6196 3.04606 32.3478 2.67898 32.0372C2.3119 31.7195 2.02247 31.356 1.81069 30.9465C1.59892 30.53 1.49303 30.05 1.49303 29.5065C1.49303 28.8641 1.60598 28.3099 1.83187 27.844C2.05777 27.3781 2.36131 26.9828 2.74251 26.6581C3.13077 26.3263 3.5755 26.058 4.07671 25.8533C4.58497 25.6486 5.11794 25.4897 5.67562 25.3768C6.2333 25.2639 6.79804 25.1862 7.36984 25.1438C7.94164 25.1015 8.4852 25.0803 9.00052 25.0803C9.56526 25.0803 10.1441 25.1086 10.7371 25.165C11.3371 25.2215 11.9266 25.3027 12.5054 25.4086C13.0843 25.5074 13.642 25.6239 14.1785 25.758C14.722 25.8921 15.2232 26.0333 15.6821 26.1816V29.5488ZM33.6734 40V33.9326H23.6775V40H19.749L19.749 25.4509H23.6775L23.6775 30.7453L33.6734 30.7453V25.4509H37.6018V40H33.6734ZM52.9777 37.2469H44.8666L43.5007 40H39.1169L46.7303 25.4509H51.1141L58.7274 40L54.3437 40L52.9777 37.2469ZM46.275 34.4091H51.5906L48.9433 29.0511L46.275 34.4091ZM64.171 40H60.2425V25.4509H70.0901C71.149 25.4509 72.0455 25.5603 72.7797 25.7792C73.5209 25.998 74.1209 26.3086 74.5798 26.711C75.0457 27.1134 75.381 27.6005 75.5857 28.1723C75.7975 28.737 75.9034 29.3688 75.9034 30.0677C75.9034 30.6818 75.8152 31.2183 75.6387 31.6772C75.4693 32.136 75.2363 32.5313 74.9398 32.8631C74.6504 33.1878 74.3115 33.4632 73.9233 33.689C73.535 33.9149 73.1256 34.102 72.695 34.2503L77.46 40H72.8644L68.4594 34.642H64.171V40ZM71.9326 30.0465C71.9326 29.7641 71.8938 29.5241 71.8161 29.3264C71.7455 29.1288 71.6185 28.9699 71.4349 28.8499C71.2514 28.7229 71.0043 28.6311 70.6937 28.5746C70.3901 28.5182 70.0089 28.4899 69.5501 28.4899H64.171V31.603H69.5501C70.0089 31.603 70.3901 31.5748 70.6937 31.5183C71.0043 31.4619 71.2514 31.3736 71.4349 31.2536C71.6185 31.1265 71.7455 30.9642 71.8161 30.7665C71.8938 30.5689 71.9326 30.3289 71.9326 30.0465ZM79.4092 40V25.4509H83.3376V40H79.4092ZM100.778 40L90.9624 30.0041V40H87.034V25.4509H91.3013L101.128 35.4892V25.4509H105.035V40H100.778ZM118.092 25.0803C119.518 25.0803 120.841 25.2038 122.063 25.4509C123.291 25.6909 124.417 26.0015 125.441 26.3827V29.9406C125.038 29.7147 124.583 29.4959 124.075 29.2841C123.573 29.0723 123.026 28.8852 122.433 28.7229C121.84 28.5605 121.205 28.4299 120.527 28.3311C119.85 28.2323 119.137 28.1828 118.388 28.1828C117.457 28.1828 116.645 28.2499 115.953 28.384C115.261 28.5182 114.668 28.6982 114.174 28.9241C113.68 29.15 113.274 29.4147 112.956 29.7182C112.639 30.0147 112.388 30.3324 112.205 30.6712C112.021 31.0101 111.894 31.356 111.823 31.7089C111.753 32.0619 111.717 32.4043 111.717 32.7361C111.717 33.0255 111.746 33.3396 111.802 33.6785C111.866 34.0173 111.979 34.3561 112.141 34.695C112.31 35.0338 112.543 35.3586 112.84 35.6692C113.136 35.9798 113.521 36.2551 113.994 36.4951C114.474 36.7351 115.049 36.9292 115.72 37.0775C116.391 37.2187 117.188 37.2893 118.113 37.2893C118.579 37.2893 118.985 37.2751 119.331 37.2469C119.677 37.2187 119.991 37.1798 120.273 37.1304C120.563 37.081 120.831 37.021 121.078 36.9504C121.332 36.8798 121.593 36.8057 121.862 36.728V34.9703H117.457V31.7831H125.79V39.2164C125.268 39.3929 124.682 39.5553 124.032 39.7035C123.39 39.8447 122.723 39.9647 122.031 40.0635C121.346 40.1694 120.658 40.2506 119.966 40.3071C119.274 40.3636 118.621 40.3918 118.007 40.3918C117.054 40.3918 116.14 40.3283 115.265 40.2012C114.389 40.0741 113.57 39.88 112.808 39.6188C112.053 39.3506 111.361 39.0117 110.733 38.6023C110.111 38.1928 109.578 37.7057 109.134 37.141C108.696 36.5763 108.354 35.9304 108.107 35.2033C107.867 34.4691 107.747 33.6467 107.747 32.7361C107.747 31.8325 107.874 31.0136 108.128 30.2794C108.382 29.5453 108.735 28.8958 109.187 28.3311C109.646 27.7664 110.193 27.2793 110.828 26.8698C111.47 26.4604 112.173 26.1251 112.935 25.8639C113.705 25.5956 114.523 25.398 115.392 25.2709C116.267 25.1438 117.167 25.0803 118.092 25.0803Z" fill="white"/>
<path d="M4.08905 48.6794V49.0143H0.985986L0.985986 51.1351H3.96255V51.4699H0.985986L0.985986 53.6651H4.14114V54H0.595313L0.595313 48.6794H4.08905ZM8.82015 54V48.6794H9.32245L12.8757 53.3377V48.6794H13.2292V54H12.9129L9.17362 49.1184V54H8.82015ZM22.0977 53.7916C21.6438 53.9554 21.1688 54.0372 20.6727 54.0372C18.7702 54.0372 17.8189 53.1132 17.8189 51.2653C17.8189 49.5166 18.7491 48.6422 20.6094 48.6422C21.1179 48.6422 21.614 48.7166 22.0977 48.8654V49.2003C21.614 49.0515 21.1427 48.9771 20.6838 48.9771C19.0343 48.9771 18.2096 49.7398 18.2096 51.2653C18.2096 52.89 19.0108 53.7023 20.6131 53.7023C20.9406 53.7023 21.3052 53.6478 21.707 53.5386V51.5815H22.0977V53.7916ZM27.3943 48.6794V54H27.0037V48.6794H27.3943ZM32.3561 54V48.6794H32.8584L36.4117 53.3377V48.6794H36.7652V54H36.4489L32.7096 49.1184V54H32.3561ZM45.0347 48.6794V49.0143H41.9316V51.1351H44.9081V51.4699H41.9316V53.6651H45.0867V54H41.5409V48.6794H45.0347ZM53.2595 48.6794V49.0143H50.1564V51.1351H53.133V51.4699H50.1564V53.6651H53.3116V54H49.7657V48.6794H53.2595ZM57.9906 54V48.6794L60.1858 48.6794C61.1482 48.6794 61.6294 49.1048 61.6294 49.9556C61.6294 50.6923 61.1073 51.2144 60.063 51.522L61.8601 54H61.3243L59.557 51.5332V51.269C60.6484 51.1078 61.1941 50.6799 61.1941 49.9854C61.1941 49.3454 60.8369 49.0254 60.1226 49.0254H58.3813V54H57.9906ZM69.6645 48.6794V49.0143H66.5614V51.1351H69.538V51.4699H66.5614V53.6651H69.7166V54H66.1708V48.6794H69.6645ZM76.256 53.6651C77.7318 53.6651 78.4698 52.8416 78.4698 51.1946C78.4698 49.741 77.7318 49.0143 76.256 49.0143H74.7863V53.6651H76.256ZM74.3956 54V48.6794H76.2932C78.0295 48.6794 78.8977 49.5178 78.8977 51.1946C78.8977 53.0649 78.0171 54 76.256 54H74.3956ZM92.3819 48.6794V49.0143H89.2789V51.1351H92.2554V51.4699H89.2789V53.6651H92.434V54H88.8882V48.6794H92.3819ZM98.7427 51.3397L96.648 48.6794H97.113L98.9734 51.0458L100.834 48.6794H101.299L99.2078 51.3397L101.299 54H100.834L98.9734 51.6336L97.113 54H96.648L98.7427 51.3397ZM109.699 53.814C109.215 53.9628 108.719 54.0372 108.21 54.0372C106.35 54.0372 105.42 53.1132 105.42 51.2653C105.42 49.5166 106.35 48.6422 108.21 48.6422C108.719 48.6422 109.215 48.7166 109.699 48.8654V49.2003C109.215 49.0515 108.744 48.9771 108.285 48.9771C106.635 48.9771 105.81 49.7398 105.81 51.2653C105.81 52.89 106.635 53.7023 108.285 53.7023C108.744 53.7023 109.215 53.6279 109.699 53.4791V53.814ZM117.912 48.6794V49.0143H114.809V51.1351H117.786V51.4699H114.809V53.6651H117.964V54H114.418V48.6794H117.912ZM123.034 48.6794V53.6651H126.115V54H122.643V48.6794H123.034ZM130.872 48.6794V53.6651H133.953V54H130.481V48.6794H130.872ZM141.813 48.6794V49.0143H138.71V51.1351H141.686V51.4699H138.71V53.6651H141.865V54H138.319V48.6794H141.813ZM146.544 54V48.6794H147.046L150.599 53.3377V48.6794H150.953V54H150.637L146.897 49.1184V54H146.544ZM159.821 53.814C159.338 53.9628 158.842 54.0372 158.333 54.0372C156.473 54.0372 155.543 53.1132 155.543 51.2653C155.543 49.5166 156.473 48.6422 158.333 48.6422C158.842 48.6422 159.338 48.7166 159.821 48.8654V49.2003C159.338 49.0515 158.866 48.9771 158.408 48.9771C156.758 48.9771 155.933 49.7398 155.933 51.2653C155.933 52.89 156.758 53.7023 158.408 53.7023C158.866 53.7023 159.338 53.6279 159.821 53.4791V53.814ZM168.035 48.6794V49.0143H164.932V51.1351L167.909 51.1351V51.4699L164.932 51.4699V53.6651L168.087 53.6651V54L164.541 54V48.6794H168.035Z" fill="white"/>
</svg>
