<svg width="36" height="235" viewBox="0 0 36 235" fill="none" xmlns="http://www.w3.org/2000/svg">
<path d="M3.65805 226.656L17 226.656L17 227.969L3.65805 227.969L3.65805 234.587L2.45092 234.587L2.45092 220.038L3.65805 220.038L3.65805 226.656ZM10.7738 214.771L17 214.771L17 216.095L2.45092 216.095L2.45092 208.852C2.45092 207.744 2.53916 206.794 2.71564 206.003C2.88507 205.213 3.14626 204.567 3.49922 204.066C3.84512 203.557 4.27926 203.187 4.80165 202.954C5.32403 202.721 5.93465 202.604 6.63352 202.604C7.72064 202.604 8.59246 202.89 9.24896 203.462C9.89841 204.034 10.3431 204.955 10.5832 206.226L17 201.26L17 202.922L10.7314 207.613C10.7455 207.811 10.7561 208.012 10.7632 208.217C10.7702 208.421 10.7738 208.633 10.7738 208.852L10.7738 214.771ZM6.63352 203.97C6.01231 203.97 5.5111 204.08 5.1299 204.299C4.74164 204.518 4.44163 204.874 4.22985 205.368C4.01807 205.862 3.87689 206.512 3.8063 207.317C3.72864 208.114 3.68982 209.095 3.68982 210.26L3.68982 214.771L9.53486 214.771L9.53486 210.303C9.53486 209.138 9.5031 208.153 9.43956 207.348C9.36897 206.544 9.23132 205.891 9.0266 205.389C8.81482 204.888 8.52186 204.528 8.14772 204.309C7.76652 204.083 7.26179 203.97 6.63352 203.97ZM17 183.625L13.1668 185.626L13.1668 195.506L17 197.507L17 198.958L2.45092 191.344L2.45092 189.788L17 182.174L17 183.625ZM3.73217 190.561L11.9491 194.86L11.9491 186.272L3.73217 190.561ZM15.8458 163.513C16.0576 164.021 16.2517 164.526 16.4282 165.027C16.6047 165.521 16.7565 166.036 16.8835 166.573C17.0106 167.109 17.1094 167.674 17.18 168.267C17.2506 168.86 17.2859 169.506 17.2859 170.205C17.2859 171.066 17.2153 171.895 17.0741 172.693C16.9329 173.484 16.7212 174.221 16.4388 174.906C16.1564 175.591 15.807 176.212 15.3905 176.77C14.9669 177.327 14.4763 177.808 13.9186 178.21C13.361 178.605 12.7327 178.912 12.0338 179.131C11.335 179.343 10.569 179.449 9.73605 179.449C8.90306 179.449 8.13713 179.343 7.43827 179.131C6.73941 178.912 6.11114 178.605 5.55346 178.21C4.99578 177.808 4.50869 177.327 4.09219 176.77C3.66864 176.212 3.31568 175.591 3.03331 174.906C2.75094 174.221 2.53916 173.484 2.39798 172.693C2.25679 171.902 2.1862 171.073 2.1862 170.205C2.1862 169.506 2.2215 168.86 2.29209 168.267C2.36268 167.674 2.46151 167.109 2.58858 166.573C2.71564 166.036 2.86742 165.521 3.0439 165.027C3.21332 164.526 3.40392 164.021 3.6157 163.513L5.20402 163.513C4.94989 163.915 4.70988 164.346 4.48398 164.804C4.25809 165.263 4.06043 165.761 3.89101 166.297C3.72159 166.827 3.58746 167.395 3.48863 168.002C3.3898 168.609 3.34039 169.259 3.34039 169.951C3.34039 171.348 3.49216 172.559 3.79571 173.583C4.09925 174.606 4.52987 175.453 5.08755 176.124C5.63817 176.787 6.30879 177.282 7.09943 177.606C7.883 177.924 8.76188 178.083 9.73605 178.083C10.7102 178.083 11.5891 177.924 12.3727 177.606C13.1562 177.282 13.8269 176.787 14.3846 176.124C14.9352 175.453 15.3623 174.606 15.6658 173.583C15.9623 172.559 16.1105 171.348 16.1105 169.951C16.1105 169.259 16.0611 168.606 15.9623 167.992C15.8635 167.37 15.7293 166.792 15.5599 166.255C15.3905 165.712 15.1964 165.214 14.9775 164.762C14.7516 164.303 14.5152 163.887 14.2681 163.513L15.8458 163.513ZM17 158.5L2.45092 158.5L2.45092 146.376L3.68982 146.376L3.68982 157.06L8.69834 157.06L8.69834 146.916L9.92665 146.916L9.92665 157.06L15.7611 157.06L15.7611 146.217L17 146.217L17 158.5ZM6.54881 120.306C6.41468 120.582 6.26291 120.945 6.09349 121.397C5.92407 121.849 5.76523 122.36 5.61699 122.932C5.46169 123.504 5.33462 124.125 5.23579 124.796C5.1299 125.467 5.07696 126.155 5.07696 126.861C5.07696 127.425 5.09461 127.909 5.1299 128.311C5.1652 128.707 5.21108 129.042 5.26756 129.317C5.32403 129.586 5.39109 129.801 5.46875 129.963C5.53934 130.119 5.61346 130.239 5.69111 130.323C5.76876 130.408 5.84641 130.464 5.92407 130.493C6.00172 130.514 6.07231 130.524 6.13584 130.524C6.34762 130.524 6.53469 130.419 6.69705 130.207C6.85236 129.995 6.99354 129.706 7.12061 129.339C7.24061 128.971 7.35709 128.544 7.47004 128.057C7.57593 127.57 7.68887 127.055 7.80888 126.511C7.92183 125.961 8.0489 125.396 8.19008 124.817C8.32421 124.231 8.48304 123.666 8.66658 123.123C8.85012 122.572 9.06542 122.053 9.3125 121.566C9.55251 121.079 9.83488 120.652 10.1596 120.285C10.4843 119.918 10.8585 119.629 11.282 119.417C11.7056 119.205 12.1891 119.099 12.7327 119.099C13.4316 119.099 14.0316 119.223 14.5328 119.47C15.034 119.717 15.4576 120.049 15.8035 120.465C16.1494 120.875 16.4282 121.351 16.64 121.895C16.8447 122.438 17.0035 123.01 17.1165 123.61C17.2294 124.203 17.3035 124.807 17.3388 125.421C17.3741 126.028 17.3918 126.607 17.3918 127.157C17.3918 128.597 17.2718 129.932 17.0318 131.16C16.7988 132.381 16.5059 133.461 16.1529 134.4L12.6798 134.4C13.2163 133.433 13.6363 132.332 13.9398 131.096C14.2434 129.854 14.3951 128.527 14.3951 127.115C14.3951 126.282 14.3528 125.604 14.2681 125.082C14.1763 124.552 14.0634 124.139 13.9292 123.843C13.7881 123.546 13.6363 123.345 13.4739 123.239C13.3116 123.133 13.1562 123.081 13.008 123.081C12.7751 123.081 12.5739 123.186 12.4044 123.398C12.228 123.61 12.0762 123.899 11.9491 124.266C11.815 124.634 11.695 125.061 11.5891 125.548C11.4762 126.035 11.3667 126.554 11.2608 127.104C11.1479 127.648 11.0279 128.209 10.9008 128.788C10.7738 129.367 10.6255 129.932 10.4561 130.482C10.2796 131.026 10.0784 131.541 9.85253 132.028C9.61957 132.515 9.34779 132.942 9.03719 133.309C8.71952 133.676 8.35597 133.966 7.94654 134.178C7.53004 134.389 7.05001 134.495 6.50645 134.495C5.86406 134.495 5.30991 134.382 4.844 134.156C4.37809 133.931 3.98278 133.627 3.65805 133.246C3.32627 132.858 3.05802 132.413 2.8533 131.912C2.64858 131.403 2.48975 130.87 2.3768 130.313C2.26385 129.755 2.1862 129.19 2.14385 128.619C2.10149 128.047 2.08031 127.503 2.08031 126.988C2.08031 126.423 2.10855 125.844 2.16503 125.251C2.2215 124.651 2.30268 124.062 2.40857 123.483C2.5074 122.904 2.62388 122.346 2.758 121.81C2.89213 121.266 3.03331 120.765 3.18155 120.306L6.54881 120.306ZM17 102.315L10.9326 102.315L10.9326 112.311L17 112.311L17 116.239L2.45092 116.239L2.45092 112.311L7.74535 112.311L7.74535 102.315L2.45092 102.315L2.45092 98.3865L17 98.3865L17 102.315ZM14.2469 83.0106L14.2469 91.1217L17 92.4877L17 96.8714L2.45092 89.2581L2.45092 84.8743L17 77.2609L17 81.6447L14.2469 83.0106ZM11.4091 89.7134L11.4091 84.3978L6.05113 87.045L11.4091 89.7134ZM17 71.8174L17 75.7458L2.45092 75.7458L2.45092 65.8982C2.45092 64.8393 2.56034 63.9428 2.77918 63.2086C2.99802 62.4674 3.30862 61.8674 3.711 61.4085C4.11337 60.9426 4.60046 60.6073 5.17226 60.4026C5.737 60.1908 6.3688 60.0849 7.06766 60.0849C7.68182 60.0849 8.21832 60.1732 8.67717 60.3497C9.13602 60.5191 9.53133 60.752 9.86312 61.0485C10.1878 61.338 10.4632 61.6768 10.689 62.0651C10.9149 62.4533 11.102 62.8627 11.2503 63.2934L17 58.5284L17 63.1239L11.642 67.5289L11.642 71.8174L17 71.8174ZM7.04648 64.0558C6.76412 64.0558 6.5241 64.0946 6.32644 64.1722C6.12878 64.2428 5.96995 64.3699 5.84995 64.5534C5.72288 64.737 5.63111 64.984 5.57463 65.2947C5.51816 65.5982 5.48992 65.9794 5.48992 66.4382L5.48992 71.8174L8.60305 71.8174L8.60305 66.4382C8.60305 65.9794 8.57481 65.5982 8.51833 65.2947C8.46186 64.984 8.37362 64.737 8.25361 64.5534C8.12655 64.3699 7.96419 64.2428 7.76653 64.1722C7.56887 64.0946 7.32885 64.0558 7.04648 64.0558ZM17 56.5792L2.45092 56.5792L2.45092 52.6507L17 52.6507L17 56.5792ZM17 35.21L7.00413 45.0259L17 45.0259L17 48.9544L2.45093 48.9544L2.45093 44.6871L12.4892 34.8606L2.45093 34.8606L2.45093 30.9533L17 30.9533L17 35.21ZM2.08032 17.8964C2.08032 16.4705 2.20385 15.1469 2.45093 13.9256C2.69094 12.6973 3.00155 11.5714 3.38274 10.5478L6.9406 10.5478C6.7147 10.9501 6.49587 11.4055 6.28409 11.9137C6.07231 12.4149 5.88524 12.962 5.72288 13.555C5.56052 14.148 5.42992 14.7833 5.33109 15.461C5.23226 16.1387 5.18285 16.8517 5.18285 17.5999C5.18285 18.5318 5.24991 19.3436 5.38404 20.0354C5.51816 20.7272 5.69817 21.3202 5.92407 21.8143C6.14996 22.3084 6.41468 22.7144 6.71823 23.032C7.01472 23.3497 7.33238 23.6003 7.67123 23.7838C8.01007 23.9674 8.35597 24.0944 8.70893 24.165C9.0619 24.2356 9.40427 24.2709 9.73605 24.2709C10.0255 24.2709 10.3396 24.2427 10.6785 24.1862C11.0173 24.1227 11.3561 24.0097 11.695 23.8474C12.0338 23.6779 12.3586 23.445 12.6692 23.1485C12.9798 22.852 13.2551 22.4673 13.4951 21.9943C13.7351 21.5143 13.9292 20.939 14.0775 20.2683C14.2187 19.5977 14.2893 18.8 14.2893 17.8752C14.2893 17.4093 14.2751 17.0034 14.2469 16.6575C14.2187 16.3116 14.1798 15.9975 14.1304 15.7151C14.081 15.4257 14.021 15.1574 13.9504 14.9104C13.8798 14.6562 13.8057 14.395 13.728 14.1268L11.9703 14.1268L11.9703 18.5318L8.78306 18.5318L8.78306 10.1983L16.2164 10.1983C16.3929 10.7207 16.5553 11.3066 16.7035 11.9561C16.8447 12.5985 16.9647 13.2656 17.0635 13.9574C17.1694 14.6421 17.2506 15.3304 17.3071 16.0222C17.3636 16.714 17.3918 17.367 17.3918 17.9811C17.3918 18.9341 17.3283 19.8483 17.2012 20.7236C17.0741 21.599 16.88 22.4179 16.6188 23.1803C16.3506 23.9356 16.0117 24.6274 15.6023 25.2557C15.1928 25.8769 14.7058 26.4099 14.141 26.8546C13.5763 27.2923 12.9304 27.6346 12.2033 27.8817C11.4691 28.1217 10.6467 28.2417 9.73605 28.2417C8.83247 28.2417 8.0136 28.1147 7.27944 27.8605C6.54528 27.6064 5.89583 27.2534 5.33109 26.8016C4.76635 26.3428 4.27927 25.7957 3.86983 25.1604C3.4604 24.518 3.12508 23.8156 2.86389 23.0532C2.59564 22.2837 2.39798 21.4649 2.27091 20.5966C2.14385 19.7212 2.08032 18.8212 2.08032 17.8964Z" fill="white"/>
<path d="M28.6794 200.889L29.0143 200.889L29.0143 203.992L31.1351 203.992L31.1351 201.015L31.4699 201.015L31.4699 203.992L33.6651 203.992L33.6651 200.837L34 200.837L34 204.383L28.6794 204.383L28.6794 200.889ZM34 196.158L28.6794 196.158L28.6794 195.656L33.3377 192.102L28.6794 192.102L28.6794 191.749L34 191.749L34 192.065L29.1184 195.804L34 195.804L34 196.158ZM33.7916 182.88C33.9554 183.334 34.0372 183.809 34.0372 184.305C34.0372 186.208 33.1132 187.159 31.2653 187.159C29.5166 187.159 28.6422 186.229 28.6422 184.369C28.6422 183.86 28.7166 183.364 28.8654 182.88L29.2003 182.88C29.0515 183.364 28.9771 183.835 28.9771 184.294C28.9771 185.944 29.7398 186.768 31.2653 186.768C32.89 186.768 33.7023 185.967 33.7023 184.365C33.7023 184.037 33.6478 183.673 33.5386 183.271L31.5815 183.271L31.5815 182.88L33.7916 182.88ZM28.6794 177.584L34 177.584L34 177.974L28.6794 177.974L28.6794 177.584ZM34 172.622L28.6794 172.622L28.6794 172.12L33.3377 168.566L28.6794 168.566L28.6794 168.213L34 168.213L34 168.529L29.1184 172.268L34 172.268L34 172.622ZM28.6794 159.943L29.0143 159.943L29.0143 163.046L31.1351 163.046L31.1351 160.07L31.4699 160.07L31.4699 163.046L33.6651 163.046L33.6651 159.891L34 159.891L34 163.437L28.6794 163.437L28.6794 159.943ZM28.6794 151.718L29.0143 151.718L29.0143 154.822L31.1351 154.822L31.1351 151.845L31.4699 151.845L31.4699 154.822L33.6651 154.822L33.6651 151.666L34 151.666L34 155.212L28.6794 155.212L28.6794 151.718ZM34 146.987L28.6794 146.987L28.6794 144.792C28.6794 143.83 29.1048 143.349 29.9556 143.349C30.6923 143.349 31.2144 143.871 31.522 144.915L34 143.118L34 143.654L31.5332 145.421L31.269 145.421C31.1078 144.33 30.6799 143.784 29.9854 143.784C29.3454 143.784 29.0254 144.141 29.0254 144.855L29.0254 146.597L34 146.597L34 146.987ZM28.6794 135.313L29.0143 135.313L29.0143 138.417L31.1351 138.417L31.1351 135.44L31.4699 135.44L31.4699 138.417L33.6651 138.417L33.6651 135.261L34 135.261L34 138.807L28.6794 138.807L28.6794 135.313ZM33.6651 128.722C33.6651 127.246 32.8416 126.508 31.1946 126.508C29.741 126.508 29.0143 127.246 29.0143 128.722L29.0143 130.192L33.6651 130.192L33.6651 128.722ZM34 130.582L28.6794 130.582L28.6794 128.685C28.6794 126.948 29.5178 126.08 31.1946 126.08C33.0649 126.08 34 126.961 34 128.722L34 130.582ZM28.6794 112.596L29.0143 112.596L29.0143 115.699L31.1351 115.699L31.1351 112.723L31.4699 112.723L31.4699 115.699L33.6651 115.699L33.6651 112.544L34 112.544L34 116.09L28.6794 116.09L28.6794 112.596ZM31.3397 106.235L28.6794 108.33L28.6794 107.865L31.0458 106.005L28.6794 104.144L28.6794 103.679L31.3397 105.77L34 103.679L34 104.144L31.6336 106.005L34 107.865L34 108.33L31.3397 106.235ZM33.814 95.2794C33.9628 95.7631 34.0372 96.2592 34.0372 96.7677C34.0372 98.6281 33.1132 99.5582 31.2653 99.5582C29.5166 99.5582 28.6422 98.6281 28.6422 96.7677C28.6422 96.2592 28.7166 95.7631 28.8654 95.2794L29.2003 95.2794C29.0515 95.7631 28.9771 96.2344 28.9771 96.6933C28.9771 98.3428 29.7398 99.1676 31.2653 99.1676C32.89 99.1676 33.7023 98.3428 33.7023 96.6933C33.7023 96.2344 33.6279 95.7631 33.4791 95.2794L33.814 95.2794ZM28.6794 87.0657L29.0143 87.0657L29.0143 90.1688L31.1351 90.1688L31.1351 87.1923L31.4699 87.1923L31.4699 90.1688L33.6651 90.1688L33.6651 87.0137L34 87.0137L34 90.5595L28.6794 90.5595L28.6794 87.0657ZM28.6794 81.944L33.6651 81.944L33.6651 78.8632L34 78.8632L34 82.3346L28.6794 82.3346L28.6794 81.944ZM28.6794 74.1061L33.6651 74.1061L33.6651 71.0253L34 71.0253L34 74.4968L28.6794 74.4968L28.6794 74.1061ZM28.6794 63.1651L29.0143 63.1651L29.0143 66.2682L31.1351 66.2682L31.1351 63.2916L31.4699 63.2916L31.4699 66.2682L33.6651 66.2682L33.6651 63.1131L34 63.1131L34 66.6589L28.6794 66.6589L28.6794 63.1651ZM34 58.434L28.6794 58.434L28.6794 57.9318L33.3377 54.3785L28.6794 54.3785L28.6794 54.025L34 54.025L34 54.3413L29.1184 58.0806L34 58.0806L34 58.434ZM33.814 45.1565C33.9628 45.6402 34.0372 46.1363 34.0372 46.6448C34.0372 48.5051 33.1132 49.4353 31.2653 49.4353C29.5166 49.4353 28.6422 48.5051 28.6422 46.6448C28.6422 46.1363 28.7166 45.6402 28.8654 45.1565L29.2003 45.1565C29.0515 45.6402 28.9771 46.1115 28.9771 46.5704C28.9771 48.2199 29.7398 49.0446 31.2653 49.0446C32.89 49.0446 33.7023 48.2199 33.7023 46.5704C33.7023 46.1115 33.6279 45.6402 33.4791 45.1565L33.814 45.1565ZM28.6794 36.9428L29.0143 36.9428L29.0143 40.0459L31.1351 40.0459L31.1351 37.0693L31.4699 37.0693L31.4699 40.0459L33.6651 40.0459L33.6651 36.8907L34 36.8907L34 40.4365L28.6794 40.4365L28.6794 36.9428Z" fill="white"/>
</svg>
