<svg width="197" height="15" viewBox="0 0 197 15" fill="none" xmlns="http://www.w3.org/2000/svg">
<path d="M7.27804 2.36253V14H6.13276V2.36253H0.360207V1.30962H13.0506V2.36253H7.27804ZM17.6446 8.56918V14H16.4901V1.30962H22.8076C23.7743 1.30962 24.6025 1.38658 25.2921 1.54052C25.9817 1.6883 26.5451 1.91612 26.9823 2.22399C27.4256 2.5257 27.7489 2.90438 27.9521 3.36003C28.1553 3.81567 28.2569 4.34829 28.2569 4.95787C28.2569 5.90611 28.0075 6.66655 27.5088 7.23918C27.01 7.80566 26.2065 8.19358 25.0981 8.40293L29.4299 14H27.9798L23.8882 8.53224C23.7158 8.54455 23.5403 8.55379 23.3618 8.55994C23.1832 8.5661 22.9985 8.56918 22.8076 8.56918H17.6446ZM27.0654 4.95787C27.0654 4.41602 26.97 3.97885 26.7791 3.64635C26.5882 3.30769 26.2773 3.046 25.8463 2.86128C25.4152 2.67656 24.8488 2.55341 24.1468 2.49184C23.451 2.4241 22.5952 2.39024 21.5792 2.39024H17.6446V7.48856H21.5422C22.5582 7.48856 23.4172 7.46085 24.1191 7.40543C24.8211 7.34386 25.3906 7.22379 25.8278 7.04523C26.265 6.8605 26.579 6.60497 26.7699 6.27863C26.9669 5.94613 27.0654 5.50588 27.0654 4.95787ZM44.8116 14L43.066 10.6565H34.4488L32.7031 14H31.4378L38.0785 1.30962H39.4362L46.077 14H44.8116ZM38.762 2.42718L35.0122 9.59439H42.5026L38.762 2.42718ZM62.3547 12.9933C61.9113 13.178 61.4711 13.3473 61.0339 13.5013C60.6029 13.6552 60.1534 13.7876 59.6854 13.8984C59.2175 14.0092 58.7249 14.0954 58.2077 14.157C57.6904 14.2186 57.127 14.2494 56.5175 14.2494C55.7663 14.2494 55.0428 14.1878 54.347 14.0647C53.6574 13.9415 53.0139 13.7568 52.4166 13.5105C51.8194 13.2642 51.2775 12.9594 50.7911 12.5961C50.3047 12.2267 49.886 11.7987 49.535 11.3123C49.1902 10.8259 48.9223 10.2779 48.7314 9.66828C48.5467 9.05869 48.4544 8.39062 48.4544 7.66404C48.4544 6.93747 48.5467 6.2694 48.7314 5.65981C48.9223 5.05023 49.1902 4.50222 49.535 4.01579C49.886 3.52936 50.3047 3.1045 50.7911 2.74121C51.2775 2.37177 51.8194 2.0639 52.4166 1.8176C53.0139 1.57131 53.6574 1.38658 54.347 1.26344C55.0366 1.14029 55.7601 1.07871 56.5175 1.07871C57.127 1.07871 57.6904 1.1095 58.2077 1.17108C58.7249 1.23265 59.2175 1.31885 59.6854 1.42969C60.1534 1.54052 60.6029 1.6729 61.0339 1.82684C61.4711 1.97461 61.9113 2.14086 62.3547 2.32559V3.711C62.0037 3.48933 61.6281 3.27998 61.2279 3.08295C60.8276 2.88591 60.3935 2.7135 59.9256 2.56572C59.4638 2.41795 58.9681 2.30096 58.4386 2.21475C57.909 2.12855 57.3426 2.08545 56.7391 2.08545C55.52 2.08545 54.464 2.21783 53.5712 2.4826C52.6783 2.74737 51.9394 3.12297 51.3545 3.6094C50.7757 4.08968 50.3447 4.67463 50.0614 5.36426C49.7844 6.04773 49.6458 6.81432 49.6458 7.66404C49.6458 8.51376 49.7844 9.28036 50.0614 9.96383C50.3447 10.6473 50.7757 11.2323 51.3545 11.7187C51.9394 12.199 52.6783 12.5715 53.5712 12.8363C54.464 13.0949 55.52 13.2242 56.7391 13.2242C57.3426 13.2242 57.9121 13.1811 58.4478 13.0949C58.9897 13.0087 59.4946 12.8917 59.9625 12.7439C60.4366 12.5961 60.8707 12.4268 61.2648 12.2359C61.665 12.0389 62.0283 11.8326 62.3547 11.6171V12.9933ZM66.727 14V1.30962H77.3024V2.39024H67.9831V6.75891H76.8313V7.83029H67.9831V12.9194H77.4409V14H66.727ZM100.041 4.88398C99.8011 4.76699 99.484 4.63461 99.0899 4.48683C98.6958 4.33905 98.2494 4.20051 97.7507 4.07121C97.2519 3.93574 96.7101 3.82491 96.1251 3.73871C95.5402 3.64635 94.9398 3.60017 94.3241 3.60017C93.8315 3.60017 93.4097 3.61556 93.0588 3.64635C92.7139 3.67713 92.4215 3.71716 92.1813 3.76642C91.9473 3.81567 91.7595 3.87417 91.6179 3.9419C91.4825 4.00348 91.3778 4.06813 91.3039 4.13586C91.23 4.20359 91.1807 4.27132 91.1561 4.33905C91.1376 4.40678 91.1284 4.46836 91.1284 4.52377C91.1284 4.7085 91.2208 4.87167 91.4055 5.01329C91.5902 5.14875 91.8427 5.2719 92.1628 5.38273C92.483 5.48741 92.8556 5.589 93.2804 5.68752C93.7053 5.77988 94.1548 5.8784 94.6289 5.98308C95.1092 6.08159 95.6018 6.19243 96.1067 6.31558C96.6177 6.43257 97.1103 6.57111 97.5844 6.7312C98.0647 6.89129 98.5173 7.07909 98.9421 7.2946C99.367 7.50395 99.7395 7.75025 100.06 8.03349C100.38 8.31673 100.632 8.64307 100.817 9.01251C101.002 9.38196 101.094 9.80374 101.094 10.2779C101.094 10.8874 100.986 11.4108 100.771 11.848C100.555 12.2852 100.266 12.6546 99.9027 12.9563C99.5456 13.258 99.1299 13.5013 98.6558 13.686C98.1817 13.8645 97.683 14.0031 97.1596 14.1016C96.6424 14.2001 96.1159 14.2648 95.5802 14.2956C95.0507 14.3263 94.5458 14.3417 94.0655 14.3417C92.8094 14.3417 91.6456 14.2371 90.5742 14.0277C89.509 13.8245 88.5669 13.569 87.748 13.2611V10.2317C88.5916 10.6996 89.5521 11.066 90.6297 11.3308C91.7134 11.5955 92.8709 11.7279 94.1024 11.7279C94.829 11.7279 95.4201 11.691 95.8758 11.6171C96.3376 11.537 96.6978 11.4385 96.9564 11.3215C97.215 11.1984 97.3905 11.066 97.4828 10.9244C97.5752 10.7828 97.6214 10.6473 97.6214 10.518C97.6214 10.3148 97.529 10.1393 97.3443 9.99154C97.1596 9.8376 96.9071 9.70522 96.5869 9.59439C96.2668 9.4774 95.8942 9.37272 95.4694 9.28036C95.0445 9.18184 94.5919 9.0864 94.1117 8.99404C93.6375 8.89552 93.148 8.79085 92.6431 8.68001C92.1382 8.56918 91.6456 8.43988 91.1654 8.2921C90.6912 8.13816 90.2417 7.96268 89.8169 7.76564C89.392 7.56245 89.0195 7.32539 88.6993 7.05446C88.3791 6.77738 88.1267 6.46027 87.942 6.10315C87.7572 5.73986 87.6649 5.32116 87.6649 4.84704C87.6649 4.28672 87.7634 3.80336 87.9604 3.39697C88.1575 2.99058 88.4222 2.64577 88.7547 2.36253C89.0934 2.07313 89.4813 1.83915 89.9185 1.66059C90.3618 1.48202 90.8267 1.34348 91.3131 1.24496C91.7996 1.14645 92.2922 1.07871 92.7909 1.04177C93.2897 1.00483 93.7638 0.986353 94.2133 0.986353C94.7059 0.986353 95.2108 1.01098 95.728 1.06024C96.2514 1.1095 96.7655 1.18031 97.2704 1.27267C97.7753 1.35888 98.2617 1.46047 98.7297 1.57746C99.2038 1.69445 99.641 1.8176 100.041 1.94691V4.88398ZM115.734 14V8.70772H107.015V14H103.589V1.30962H107.015V5.92766H115.734V1.30962H119.161V14H115.734ZM132.572 11.5986H125.497L124.306 14H120.482L127.123 1.30962H130.947L137.587 14H133.764L132.572 11.5986ZM126.726 9.12335H131.362L129.053 4.44989L126.726 9.12335ZM142.335 14H138.909V1.30962H147.498C148.422 1.30962 149.204 1.40506 149.844 1.59594C150.491 1.78681 151.014 2.05774 151.415 2.40871C151.821 2.75968 152.113 3.18454 152.292 3.68329C152.477 4.17588 152.569 4.72697 152.569 5.33655C152.569 5.87224 152.492 6.34021 152.338 6.74044C152.19 7.14067 151.987 7.48548 151.729 7.77488C151.476 8.05812 151.181 8.29826 150.842 8.49529C150.503 8.69233 150.146 8.8555 149.771 8.9848L153.927 14H149.918L146.076 9.32654H142.335V14ZM149.106 5.31808C149.106 5.07178 149.072 4.86243 149.004 4.69002C148.942 4.51762 148.832 4.37908 148.671 4.2744C148.511 4.16357 148.296 4.08352 148.025 4.03426C147.76 3.985 147.428 3.96037 147.027 3.96037H142.335V6.67578H147.027C147.428 6.67578 147.76 6.65115 148.025 6.60189C148.296 6.55264 148.511 6.47567 148.671 6.37099C148.832 6.26016 148.942 6.11854 149.004 5.94613C149.072 5.77373 149.106 5.56437 149.106 5.31808ZM155.627 14V1.30962H159.054V14H155.627ZM174.266 14L165.704 5.28113V14H162.278V1.30962H166L174.571 10.0654V1.30962H177.979V14H174.266ZM189.368 0.986353C190.612 0.986353 191.766 1.09411 192.831 1.30962C193.903 1.51897 194.885 1.78989 195.778 2.12239V5.22572C195.427 5.02868 195.03 4.8378 194.586 4.65308C194.149 4.46836 193.672 4.30519 193.155 4.16357C192.637 4.02195 192.083 3.90804 191.492 3.82183C190.901 3.73563 190.279 3.69253 189.626 3.69253C188.814 3.69253 188.106 3.75102 187.502 3.86801C186.899 3.985 186.382 4.14202 185.951 4.33905C185.519 4.53609 185.165 4.76699 184.888 5.03176C184.611 5.29037 184.393 5.56745 184.233 5.86301C184.072 6.15856 183.962 6.46027 183.9 6.76814C183.839 7.07601 183.808 7.37465 183.808 7.66404C183.808 7.9165 183.832 8.1905 183.882 8.48606C183.937 8.78161 184.036 9.07717 184.177 9.37272C184.325 9.66828 184.528 9.95152 184.787 10.2224C185.045 10.4934 185.381 10.7335 185.793 10.9429C186.212 11.1522 186.714 11.3215 187.299 11.4508C187.884 11.574 188.58 11.6356 189.386 11.6356C189.793 11.6356 190.147 11.6232 190.448 11.5986C190.75 11.574 191.024 11.5401 191.27 11.497C191.523 11.4539 191.757 11.4016 191.972 11.34C192.194 11.2784 192.422 11.2138 192.656 11.146V9.61286H188.814V6.8328H196.082V13.3165C195.627 13.4705 195.116 13.6121 194.549 13.7414C193.989 13.8645 193.407 13.9692 192.804 14.0554C192.206 14.1478 191.606 14.2186 191.003 14.2678C190.399 14.3171 189.83 14.3417 189.294 14.3417C188.463 14.3417 187.665 14.2863 186.902 14.1755C186.138 14.0647 185.424 13.8953 184.759 13.6675C184.1 13.4335 183.497 13.138 182.949 12.7808C182.407 12.4237 181.942 11.9988 181.554 11.5063C181.172 11.0137 180.874 10.4503 180.658 9.81605C180.449 9.17568 180.344 8.45835 180.344 7.66404C180.344 6.8759 180.455 6.16164 180.677 5.52127C180.898 4.8809 181.206 4.31442 181.6 3.82183C182.001 3.32924 182.478 2.90438 183.032 2.54725C183.592 2.19012 184.205 1.89765 184.87 1.66982C185.541 1.43584 186.255 1.26344 187.013 1.1526C187.776 1.04177 188.561 0.986353 189.368 0.986353Z" fill="white"/>
</svg>
